<svg xmlns="http://www.w3.org/2000/svg" xmlns:xlink="http://www.w3.org/1999/xlink" width="807.234" height="795.419" viewBox="0 0 807.234 795.419">
  <defs>
    <clipPath id="clip-path">
      <path id="Path_970" data-name="Path 970" d="M339.913,493.67s2.07-28.388-10.407-56.789-15.287-30.447-15.287-38.761,8.349-18.016,9.737-36.714.694-27.753.694-27.753,29.776,47.087,50.556,49.862S408.45,366.9,400.83,340.58s-40.866-47.781-54.013-65.1-42.947-17.345-58.176-17.345-22.85-5.539-25.625-15.923-2.764-31.222-2.764-31.222-18.016,11.078-48.486-1.388c0,0,2.775,38.09-.694,43.629s-8.28,11.182-29.059,11.182-38.09,4.163-47.781,13.876S84.371,326.762,73.987,342,69.13,373.86,81.6,380.093s24.931.682,33.939-7.62,37.4-34.633,37.4-34.633,0,15.935,7.62,38.784,13.876,20.086,8.3,36.7S152.237,434.8,148.78,456.262a204.055,204.055,0,0,0-2.775,37.4" transform="translate(-68.539 -209.6)" fill="#fff" stroke="#263238" stroke-linecap="round" stroke-linejoin="round" stroke-width="1"/>
    </clipPath>
    <clipPath id="clip-path-2">
      <path id="Path_977" data-name="Path 977" d="M213.132,310.839c34.552,6.661,47.885-26.457,52.522-52.926-11.506-1.272-17.565-6.626-19.97-15.634-2.764-10.407-2.764-31.222-2.764-31.222s-18.016,11.078-48.486-1.388c0,0,2.775,38.09-.694,43.629-2.405,3.862-5.5,7.724-14.177,9.7C179.251,274.888,181.645,304.757,213.132,310.839Z" transform="translate(-179.54 -209.67)" fill="#b2b2b2" stroke="#263238" stroke-linecap="round" stroke-linejoin="round" stroke-width="1"/>
    </clipPath>
    <clipPath id="clip-path-3">
      <path id="Path_982" data-name="Path 982" d="M176.39,186.48s1.156,30.979,23.96,46.173,39.744,6.429,49.1-6.429,15.206-25.717,15.206-44.416,2.313-26.9-4.093-38.588-28.643-17.53-28.643-17.53a350.883,350.883,0,0,1-29.811,32.736C184.565,175.367,176.39,186.48,176.39,186.48Z" transform="translate(-176.39 -125.69)" fill="#b2b2b2" stroke="#263238" stroke-linecap="round" stroke-linejoin="round" stroke-width="1"/>
    </clipPath>
    <clipPath id="clip-path-4">
      <path id="Path_1020" data-name="Path 1020" d="M74.936,324.11S62.47,337.986,62.47,352.5s8.3,27.753,31.222,48.474S138,436.982,147.011,441.838s18-1.388,18-1.388,14.894,14.882,16.617,11.425-5.192-8.661-6.58-10.731a28.447,28.447,0,0,0-4.151-4.5s7.273,1.029,10.049,3.469,7.262,6.58,9.343,6.233,2.081-2.081-1.041-6.233a37.072,37.072,0,0,0-9-8.314c-2.081-1.376-9.008-5.192-9.008-5.192s10.037-.694,13.506,1.388,12.812,8.314,13.506,5.539.694-4.5-2.775-7.62-10.407-6.938-14.535-7.62a42.94,42.94,0,0,1-8.314-2.417s7.967-2.775,10.731-2.775,13.876,5.539,16.964,4.857,1.388-3.469-1.029-5.2-13.159-5.886-17.669-6.233-29.776,8.314-32.887,8.314-11.078-11.078-19.392-25.972-11.425-38.09-29.082-46.046" transform="translate(-62.47 -324.11)" fill="#fff" stroke="#263238" stroke-linecap="round" stroke-linejoin="round" stroke-width="1"/>
    </clipPath>
    <clipPath id="clip-path-5">
      <path id="Path_1071" data-name="Path 1071" d="M312.307,362.855c-2.891-6.6-.416-21.057,2.475-41.7s5.782-41.7,5.782-52.845,1.839-26.6-1.792-31.58-16.848-18.5-17.831-24.769,7.921-15.854,7.921-15.854,2.648-4.961,4.961-2.313,1.318,5.944,0,10.569-2.648,8.256-2.648,8.256,11.563,3.631,14.535,1.654,2.706-13.286,2.5-18.825c-.428-10.8-4.753-6.186-7.748-1.075-1.445,2.451-9.91.994-4.961-5.285s9.551-11.818,14.177-6.857,7.921,14.535,7.921,14.535,3.307-15.738,6.314-24.989,8.4-12.916,10.338-12.269,1.723,3.874-.22,8.4-6.244,17-7.32,21.092-1.284,8.823.867,8.4,9.679-13.564,11.841-19.161,5.377-10.754,9.031-13.125,6.672.648,5.169,4.521a196.911,196.911,0,0,1-10.153,20.444,88.338,88.338,0,0,0-6.025,13.344,151.779,151.779,0,0,1,11.194-10.766c5.169-4.3,10.766-5.157,12.477-3.654s.22,1.723-4.082,5.169-10.731,7.551-15.877,15.923a79.046,79.046,0,0,0-9.251,19.8,67.132,67.132,0,0,1-6.244,13.136s4.036,32.771,11.032,50.8,19.369,44.392,15.6,63.229-11.032,28.516-21.254,31.476a19.762,19.762,0,0,1-17.484-3.226" transform="translate(-300.864 -159.437)" fill="#fff" stroke="#263238" stroke-linecap="round" stroke-linejoin="round" stroke-width="1"/>
    </clipPath>
  </defs>
  <g id="Group_544" data-name="Group 544" transform="translate(-171 -186)">
    <path id="Path_732" data-name="Path 732" d="M30.111,0,794.816.391c16.63,0,11.843,15.6,11.586,15.049L543.195,763.087c-7.19,16.932-13.481,32-30.111,32L30.111,795C13.481,795,0,780.673,0,763V32C0,14.327,13.481,0,30.111,0Z" transform="translate(171 186)" fill="#751fff"/>
    <text id="Only_one_step_remaining" data-name="Only one step remaining" transform="translate(223 345)" fill="#fff" font-size="46" font-family="NexaBold, Nexa"><tspan x="0" y="0">ONLY ONE STEP REMAINING</tspan></text>
    <g id="Ok-bro" transform="translate(163.816 461.303)">
      <g id="freepik--background-simple--inject-39" transform="translate(80.783 25.709)">
        <path id="Path_733" data-name="Path 733" d="M485.882,128.094s-31.65-58.841-101.553-67.56S265.574,94.308,214.171,116.107c-26.933,11.41-57.744,6.98-86.3,12.5C36.407,146.271,1.957,256.933,40.046,319.86c32.979,54.481,91.006,82.8,179.387,89.349s150.352,14.161,229.5-39.227S522.795,205.456,485.882,128.094Z" transform="translate(-24.753 -59.371)" fill="#9451ff"/>
        <path id="Path_734" data-name="Path 734" d="M485.882,128.094s-31.65-58.841-101.553-67.56S265.574,94.308,214.171,116.107c-26.933,11.41-57.744,6.98-86.3,12.5C36.407,146.271,1.957,256.933,40.046,319.86c32.979,54.481,91.006,82.8,179.387,89.349s150.352,14.161,229.5-39.227S522.795,205.456,485.882,128.094Z" transform="translate(-24.753 -59.371)" fill="#9451ff" opacity="0.7"/>
      </g>
      <g id="freepik--Plants--inject-39" transform="translate(373.7 231.463)">
        <path id="Path_735" data-name="Path 735" d="M447.833,411.411c4-23,42-67,31-94s-38.009,58.974-48.012,60-.994-39,13.009-77,25-78.008,0-93.006-24.006,104-30.007,100,4-54-2.995-85-23-6-23,30.065,11,56,2.995,58.974-32.551-8.21-32,31,31,86.01,19.993,80.008-31-29-27,8c2.833,26.157,23.127,51.3,34.806,63.8H440.1c8.152-8.384,23.994-26.053,34.691-46.8C489.831,418.418,443.832,434.422,447.833,411.411Z" transform="translate(-351.299 -206.099)" fill="#fff"/>
        <path id="Path_736" data-name="Path 736" d="M381.329,487.439c-9.9-14.188-14.524-31.534-19.149-47.723-2.313-10.407-2.313-21.971,5.782-28.909,8.094-5.782,12.72,4.625,17.345,9.251,3.469-2.313,1.156-5.782,1.156-8.095a447.091,447.091,0,0,1-3.469-55.5c0-11.564,4.625-20.814,9.251-31.222,2.313-3.469,4.625-6.938,8.094-8.094s6.938,0,8.094,3.469c2.313,8.094,2.313,16.189,3.469,24.283,2.313-2.313,1.156-5.782,1.156-8.094,4.625-33.534,1.156-65.912,11.564-98.29,1.156-2.313,4.625-4.625,6.938-3.469,8.095,1.156,8.095,11.564,8.095,18.5,4.625,33.534-5.782,65.912-9.251,99.446,0,2.313-1.156,4.625,1.156,6.938,1.156-8.094,5.782-16.189,8.095-24.283,1.156-3.469,3.469-8.094,6.938-10.407,2.313-1.156,4.625,0,6.938,2.313,4.625,6.938,5.782,13.876,4.625,21.971-3.469,19.658-10.407,35.847-18.5,53.192l-3.469,10.407c-1.156,6.938-5.782,15.033-1.156,20.814,8.094-1.156,10.407-10.407,17.345-15.033s9.251,1.156,10.407,5.782c4.625,23.127-3.469,43.941-15.125,62.709" transform="translate(-349.806 -201.622)" fill="none" stroke="#263238" stroke-linecap="round" stroke-linejoin="round" stroke-width="1"/>
        <path id="Path_737" data-name="Path 737" d="M406.642,463.422s-2.694-54.036,4.059-103.332" transform="translate(-342.729 -182.022)" fill="none" stroke="#263238" stroke-linecap="round" stroke-linejoin="round" stroke-width="1"/>
        <path id="Path_738" data-name="Path 738" d="M387.3,419.66l22.283,24.318,19.589-16.894" transform="translate(-345.67 -172.708)" fill="none" stroke="#263238" stroke-linecap="round" stroke-linejoin="round" stroke-width="1"/>
        <path id="Path_739" data-name="Path 739" d="M401.31,367.1l6.082,31.06,17.565-31.06" transform="translate(-343.48 -180.926)" fill="none" stroke="#263238" stroke-linecap="round" stroke-linejoin="round" stroke-width="1"/>
        <line id="Line_2" data-name="Line 2" y1="29.036" x2="4.047" transform="translate(68.642 140.926)" fill="none" stroke="#263238" stroke-linecap="round" stroke-linejoin="round" stroke-width="1"/>
      </g>
      <g id="freepik--Window--inject-39" transform="translate(75.152 70.292)">
        <rect id="Rectangle_106" data-name="Rectangle 106" width="72.827" height="91.04" transform="translate(0 94.347)" fill="none" stroke="#fff" stroke-linecap="round" stroke-linejoin="round" stroke-width="1"/>
        <rect id="Rectangle_107" data-name="Rectangle 107" width="72.827" height="91.04" transform="translate(91.04 94.347)" fill="none" stroke="#fff" stroke-linecap="round" stroke-linejoin="round" stroke-width="1"/>
        <rect id="Rectangle_108" data-name="Rectangle 108" width="72.827" height="91.04" transform="translate(0 200.28)" fill="none" stroke="#fff" stroke-linecap="round" stroke-linejoin="round" stroke-width="1"/>
        <rect id="Rectangle_109" data-name="Rectangle 109" width="72.827" height="91.04" transform="translate(91.04 200.28)" fill="none" stroke="#fff" stroke-linecap="round" stroke-linejoin="round" stroke-width="1"/>
        <rect id="Rectangle_110" data-name="Rectangle 110" width="72.827" height="91.04" transform="translate(0 306.214)" fill="none" stroke="#fff" stroke-linecap="round" stroke-linejoin="round" stroke-width="1"/>
        <rect id="Rectangle_111" data-name="Rectangle 111" width="72.827" height="91.04" transform="translate(91.04 306.214)" fill="none" stroke="#fff" stroke-linecap="round" stroke-linejoin="round" stroke-width="1"/>
        <path id="Path_740" data-name="Path 740" d="M153.407,66.72h0A81.107,81.107,0,0,0,72.3,147.827H234.513A81.107,81.107,0,0,0,153.407,66.72Z" transform="translate(-70.646 -66.72)" fill="none" stroke="#fff" stroke-linecap="round" stroke-linejoin="round" stroke-width="1"/>
      </g>
      <g id="freepik--Character--inject-39" transform="translate(65.439 99.436)">
        <path id="Path_741" data-name="Path 741" d="M250.133,106.258s0-17.345-29.776-13.876S178.1,122.158,169.107,127.7s-25.625,10.407-26.319,18.7,6.938,11.772-.694,18-19.334,11.806-16.617,20.121,10.407,16.617,6.938,22.167-13.159,11.078-4.163,17.345,13.159,7.62,13.159,15.923-3.469,13.876,4.857,16.628,13.148-2.775,18,7.609,9.69,13.159,18,11.078,20.074-5.539,24.283-2.764,17.345,10.407,22.85,6.233,10.407-10.407,18.7-6.938,15.241,8.314,18.7,2.081,0-7.62,13.159-10.407,18-2.07,18-13.148-.694-13.876,5.539-18.7,11.772-2.775,9.7-14.547-6.233-14.547-4.163-26.319-3.469-15.923-7.62-19.392-9-9.69-7.609-15.923,11.772-6.938,1.376-18-15.229-7.62-17.345-15.935S268.831,95.18,250.133,106.258Z" transform="translate(-52.767 -91.923)" fill="#263238" stroke="#263238" stroke-linecap="round" stroke-linejoin="round" stroke-width="1"/>
        <path id="Path_742" data-name="Path 742" d="M220.828,122.35c-4.267,6.753-7.563,14.374-14.431,20.814-9.922,9.251-35.338,17.345-36.575,26.041s3.1,13.633-5.574,21.069-22.318,9.251-22.318,16.744,3.712,9.922,1.862,15.5" transform="translate(-50.046 -87.166)" fill="none" stroke="#616161" stroke-miterlimit="10" stroke-width="1"/>
        <path id="Path_743" data-name="Path 743" d="M227.951,115.636s-3.1-8.094-11.783,0c-.671.624-1.307,1.272-1.908,1.931" transform="translate(-38.737 -88.778)" fill="none" stroke="#616161" stroke-miterlimit="10" stroke-width="1"/>
        <path id="Path_744" data-name="Path 744" d="M170.4,145.79c-7.632,1.85-13.657,3.18-14.281,8.592-1.249,10.534.613,17.345-6.822,20.456s-17.345,8.094-14.258,14.258,3.712,8.094,3.1,10.534" transform="translate(-51.214 -83.501)" fill="none" stroke="#616161" stroke-miterlimit="10" stroke-width="1"/>
        <path id="Path_745" data-name="Path 745" d="M232.893,107.292s-17.345-11.147-26.6-1.237-4.961,22.318-19.219,35.963a36.194,36.194,0,0,1-12.558,7.62" transform="translate(-44.951 -90.356)" fill="none" stroke="#616161" stroke-miterlimit="10" stroke-width="1"/>
        <path id="Path_746" data-name="Path 746" d="M277.17,182.6a11.24,11.24,0,0,0,4.174,3.839" transform="translate(-28.901 -77.746)" fill="none" stroke="#616161" stroke-miterlimit="10" stroke-width="1"/>
        <path id="Path_747" data-name="Path 747" d="M235.75,120.191s15.5-4.961,19.207,3.712,5.585,24.179,12.408,26.666,9.91,6.2,9.91,19.831a43.689,43.689,0,0,0,1.943,12.963" transform="translate(-35.377 -87.724)" fill="none" stroke="#616161" stroke-miterlimit="10" stroke-width="1"/>
        <path id="Path_748" data-name="Path 748" d="M148.9,220.6c4.961-8.094,11.772-4.949,12.4-13.633s-4.336-11.159.613-16.732,13.021-8.094,13.021-8.094" transform="translate(-48.956 -77.818)" fill="none" stroke="#616161" stroke-miterlimit="10" stroke-width="1"/>
        <path id="Path_749" data-name="Path 749" d="M155.587,231.316a29.315,29.315,0,0,1-5.9-6.626" transform="translate(-48.833 -71.165)" fill="none" stroke="#616161" stroke-miterlimit="10" stroke-width="1"/>
        <path id="Path_750" data-name="Path 750" d="M339.913,493.67s2.07-28.388-10.407-56.789-15.287-30.447-15.287-38.761,8.349-18.016,9.737-36.714.694-27.753.694-27.753,29.776,47.087,50.556,49.862S408.45,366.9,400.83,340.58s-40.866-47.781-54.013-65.1-42.947-17.345-58.176-17.345-22.85-5.539-25.625-15.923-2.764-31.222-2.764-31.222-18.016,11.078-48.486-1.388c0,0,2.775,38.09-.694,43.629s-8.28,11.182-29.059,11.182-38.09,4.163-47.781,13.876S84.371,326.762,73.987,342,69.13,373.86,81.6,380.093s24.931.682,33.939-7.62,37.4-34.633,37.4-34.633,0,15.935,7.62,38.784,13.876,20.086,8.3,36.7S152.237,434.8,148.78,456.262a204.055,204.055,0,0,0-2.775,37.4" transform="translate(-61.521 -73.524)" fill="#fff"/>
        <g id="Group_431" data-name="Group 431" transform="translate(7.018 136.076)" clip-path="url(#clip-path)">
          <g id="Group_430" data-name="Group 430" transform="translate(1.192 1.249)" opacity="0.2">
            <path id="Path_751" data-name="Path 751" d="M264.068,270.35c-.474,0-2.209,1.156,0,4.521C266.277,271.529,264.542,270.35,264.068,270.35Z" transform="translate(-39.331 -201.35)"/>
            <path id="Path_752" data-name="Path 752" d="M312.068,270.35c-.474,0-2.209,1.156,0,4.521C314.277,271.529,312.542,270.35,312.068,270.35Z" transform="translate(-31.826 -201.35)"/>
            <path id="Path_753" data-name="Path 753" d="M312.068,294.35c-.474,0-2.209,1.156,0,4.521C314.277,295.529,312.542,294.35,312.068,294.35Z" transform="translate(-31.826 -197.598)"/>
            <path id="Path_754" data-name="Path 754" d="M264.068,294.35c-.474,0-2.209,1.156,0,4.521C266.277,295.529,264.542,294.35,264.068,294.35Z" transform="translate(-39.331 -197.598)"/>
            <path id="Path_755" data-name="Path 755" d="M288.068,282.35c-.474,0-2.209,1.156,0,4.521C290.277,283.529,288.542,282.35,288.068,282.35Z" transform="translate(-35.578 -199.474)"/>
            <path id="Path_756" data-name="Path 756" d="M288.068,258.35c-.474,0-2.209,1.156,0,4.521C290.277,259.529,288.542,258.35,288.068,258.35Z" transform="translate(-35.578 -203.227)"/>
            <path id="Path_757" data-name="Path 757" d="M265,275.228c4,.22,4.14-1.873,3.909-2.313S266.723,271.632,265,275.228Z" transform="translate(-39.014 -201.014)"/>
            <path id="Path_758" data-name="Path 758" d="M316.394,274.384l-1.538-1.584a5.492,5.492,0,0,0-1.9,2.382A4.625,4.625,0,0,0,316.394,274.384Z" transform="translate(-31.515 -200.967)"/>
            <path id="Path_759" data-name="Path 759" d="M289,287.228c4,.22,4.14-1.873,3.908-2.313S290.723,283.632,289,287.228Z" transform="translate(-35.261 -199.137)"/>
            <path id="Path_760" data-name="Path 760" d="M289,263.228c4,.22,4.14-1.873,3.908-2.313S290.723,259.632,289,263.228Z" transform="translate(-35.261 -202.89)"/>
            <path id="Path_761" data-name="Path 761" d="M307.509,272.946c-.231.4-.081,2.5,3.908,2.313C309.648,271.627,307.752,272.529,307.509,272.946Z" transform="translate(-32.378 -201.009)"/>
            <path id="Path_762" data-name="Path 762" d="M307.507,296.946a1.434,1.434,0,0,0,.6,1.584h0a4.857,4.857,0,0,0,3.307.694,6.439,6.439,0,0,0-.37-.694C309.392,295.755,307.738,296.553,307.507,296.946Z" transform="translate(-32.376 -197.257)"/>
            <path id="Path_763" data-name="Path 763" d="M283.509,284.946c-.231.4-.081,2.5,3.909,2.313C285.648,283.627,283.752,284.529,283.509,284.946Z" transform="translate(-36.13 -199.133)"/>
            <path id="Path_764" data-name="Path 764" d="M283.509,260.946c-.231.4-.081,2.5,3.909,2.313C285.648,259.627,283.752,260.529,283.509,260.946Z" transform="translate(-36.13 -202.885)"/>
            <path id="Path_765" data-name="Path 765" d="M264.068,342.35c-.474,0-2.209,1.156,0,4.521C266.277,343.529,264.542,342.35,264.068,342.35Z" transform="translate(-39.331 -190.093)"/>
            <path id="Path_766" data-name="Path 766" d="M312.067,342.35c-.347,0-1.341.624-1.029,2.232.486.52.971,1.041,1.469,1.55C314.01,343.356,312.507,342.35,312.067,342.35Z" transform="translate(-31.825 -190.093)"/>
            <path id="Path_767" data-name="Path 767" d="M264.068,366.35c-.474,0-2.209,1.156,0,4.521C266.277,367.53,264.542,366.35,264.068,366.35Z" transform="translate(-39.331 -186.34)"/>
            <path id="Path_768" data-name="Path 768" d="M336.068,354.35c-.474,0-2.209,1.156,0,4.521C338.277,355.529,336.542,354.35,336.068,354.35Z" transform="translate(-28.073 -188.217)"/>
            <path id="Path_769" data-name="Path 769" d="M264.068,318.35c-.474,0-2.209,1.156,0,4.521C266.277,319.529,264.542,318.35,264.068,318.35Z" transform="translate(-39.331 -193.845)"/>
            <path id="Path_770" data-name="Path 770" d="M312.068,318.35c-.474,0-2.209,1.156,0,4.521C314.277,319.529,312.542,318.35,312.068,318.35Z" transform="translate(-31.826 -193.845)"/>
            <path id="Path_771" data-name="Path 771" d="M288.068,330.35c-.474,0-2.209,1.156,0,4.521C290.277,331.53,288.542,330.35,288.068,330.35Z" transform="translate(-35.578 -191.969)"/>
            <path id="Path_772" data-name="Path 772" d="M336.068,330.35c-.474,0-2.209,1.156,0,4.521C338.277,331.53,336.542,330.35,336.068,330.35Z" transform="translate(-28.073 -191.969)"/>
            <path id="Path_773" data-name="Path 773" d="M288.068,306.35c-.474,0-2.209,1.156,0,4.521C290.277,307.529,288.542,306.35,288.068,306.35Z" transform="translate(-35.578 -195.722)"/>
            <path id="Path_774" data-name="Path 774" d="M336.068,306.35c-.474,0-2.209,1.156,0,4.521C338.277,307.529,336.542,306.35,336.068,306.35Z" transform="translate(-28.073 -195.722)"/>
            <path id="Path_775" data-name="Path 775" d="M265,347.228c4,.22,4.14-1.873,3.909-2.313S266.723,343.632,265,347.228Z" transform="translate(-39.014 -189.756)"/>
            <path id="Path_776" data-name="Path 776" d="M313.15,346.81l.416.428c3.365,0,3.469-1.908,3.272-2.313S314.85,343.711,313.15,346.81Z" transform="translate(-31.485 -189.754)"/>
            <path id="Path_777" data-name="Path 777" d="M267.983,368.532a2.1,2.1,0,0,0-1.388.486,4.622,4.622,0,0,0-.647.624,6.591,6.591,0,0,0-.624.89.243.243,0,0,1,0,.069c-.1.185-.22.393-.324.624a4.833,4.833,0,0,0,3.307-.694h0a2.068,2.068,0,0,0,.231-.208,1.8,1.8,0,0,0,.289-.416.844.844,0,0,0-.8-1.376Z" transform="translate(-39.014 -186.001)"/>
            <path id="Path_778" data-name="Path 778" d="M337,359.228c3.989.22,4.14-1.873,3.908-2.313S338.723,355.632,337,359.228Z" transform="translate(-27.756 -187.88)"/>
            <path id="Path_779" data-name="Path 779" d="M265,323.228c4,.22,4.14-1.873,3.909-2.313S266.723,319.632,265,323.228Z" transform="translate(-39.014 -193.509)"/>
            <path id="Path_780" data-name="Path 780" d="M316.868,320.946c-.243-.416-2.139-1.318-3.908,2.313C316.949,323.443,317.1,321.35,316.868,320.946Z" transform="translate(-31.515 -193.504)"/>
            <path id="Path_781" data-name="Path 781" d="M289,335.088a9.72,9.72,0,0,0,1.006,0c0-.578.058-1.156.081-1.688A7.358,7.358,0,0,0,289,335.088Z" transform="translate(-35.261 -191.492)"/>
            <path id="Path_782" data-name="Path 782" d="M337,335.228c3.989.22,4.14-1.873,3.908-2.313S338.723,331.632,337,335.228Z" transform="translate(-27.756 -191.632)"/>
            <path id="Path_783" data-name="Path 783" d="M289,311.228c4,.22,4.14-1.873,3.908-2.313S290.723,307.632,289,311.228Z" transform="translate(-35.261 -195.385)"/>
            <path id="Path_784" data-name="Path 784" d="M337,311.228c3.989.22,4.14-1.873,3.908-2.313S338.723,307.632,337,311.228Z" transform="translate(-27.756 -195.385)"/>
            <path id="Path_785" data-name="Path 785" d="M285.579,359.131l.636-1.723c-1.341-1.388-2.521-.786-2.706-.463S283.382,358.726,285.579,359.131Z" transform="translate(-36.13 -187.875)"/>
            <path id="Path_786" data-name="Path 786" d="M355.507,344.948a1.492,1.492,0,0,0,.775,1.711c.243-.671.451-1.365.648-2.07A1.353,1.353,0,0,0,355.507,344.948Z" transform="translate(-24.87 -189.754)"/>
            <path id="Path_787" data-name="Path 787" d="M331.51,356.946c-.243.4-.081,2.5,3.908,2.313C333.649,355.627,331.753,356.529,331.51,356.946Z" transform="translate(-28.626 -187.875)"/>
            <path id="Path_788" data-name="Path 788" d="M307.509,320.946c-.231.4-.081,2.5,3.908,2.313C309.648,319.627,307.752,320.529,307.509,320.946Z" transform="translate(-32.378 -193.504)"/>
            <path id="Path_789" data-name="Path 789" d="M283.509,332.946c-.231.4-.081,2.5,3.909,2.313C285.648,331.627,283.752,332.529,283.509,332.946Z" transform="translate(-36.13 -191.628)"/>
            <path id="Path_790" data-name="Path 790" d="M331.51,332.946c-.243.4-.081,2.5,3.908,2.313C333.649,331.627,331.753,332.529,331.51,332.946Z" transform="translate(-28.626 -191.628)"/>
            <path id="Path_791" data-name="Path 791" d="M283.509,308.946c-.231.4-.081,2.5,3.909,2.313C285.648,307.627,283.752,308.529,283.509,308.946Z" transform="translate(-36.13 -195.38)"/>
            <path id="Path_792" data-name="Path 792" d="M331.51,308.946c-.243.4-.081,2.5,3.908,2.313C333.649,307.627,331.753,308.529,331.51,308.946Z" transform="translate(-28.626 -195.38)"/>
            <path id="Path_793" data-name="Path 793" d="M316.267,298.529h0a1.434,1.434,0,0,0,.6-1.584c-.231-.393-1.885-1.156-3.538,1.584h0a6.443,6.443,0,0,0-.37.694A4.833,4.833,0,0,0,316.267,298.529Z" transform="translate(-31.515 -197.255)"/>
            <path id="Path_794" data-name="Path 794" d="M268.267,298.529h0a1.434,1.434,0,0,0,.6-1.584c-.231-.393-1.885-1.156-3.538,1.584h0a6.443,6.443,0,0,0-.37.694,4.833,4.833,0,0,0,3.307-.694Z" transform="translate(-39.02 -197.255)"/>
            <path id="Path_795" data-name="Path 795" d="M264.068,414.35c-.474,0-2.209,1.156,0,4.521C266.277,415.529,264.542,414.35,264.068,414.35Z" transform="translate(-39.331 -178.835)"/>
            <path id="Path_796" data-name="Path 796" d="M264.068,438.35c-.474,0-2.209,1.156,0,4.521C266.277,439.529,264.542,438.35,264.068,438.35Z" transform="translate(-39.331 -175.083)"/>
            <path id="Path_797" data-name="Path 797" d="M288.068,426.35c-.474,0-2.209,1.156,0,4.521C290.277,427.53,288.542,426.35,288.068,426.35Z" transform="translate(-35.578 -176.959)"/>
            <path id="Path_798" data-name="Path 798" d="M264.068,390.35c-.474,0-2.209,1.156,0,4.521C266.277,391.529,264.542,390.35,264.068,390.35Z" transform="translate(-39.331 -182.588)"/>
            <path id="Path_799" data-name="Path 799" d="M288.068,402.35c-.474,0-2.209,1.156,0,4.521C290.277,403.529,288.542,402.35,288.068,402.35Z" transform="translate(-35.578 -180.712)"/>
            <path id="Path_800" data-name="Path 800" d="M265,419.228c4,.22,4.14-1.873,3.909-2.313S266.723,415.632,265,419.228Z" transform="translate(-39.014 -178.499)"/>
            <path id="Path_801" data-name="Path 801" d="M267.99,440.53h-.243a1.918,1.918,0,0,0-.844.266l-.3.208a5.341,5.341,0,0,0-1.272,1.515h0a6.455,6.455,0,0,0-.37.694,4.833,4.833,0,0,0,3.307-.694h0a1.434,1.434,0,0,0,.6-1.584A1.156,1.156,0,0,0,267.99,440.53Z" transform="translate(-39.02 -174.742)"/>
            <path id="Path_802" data-name="Path 802" d="M289,431.228c4,.22,4.14-1.873,3.908-2.313S290.723,427.632,289,431.228Z" transform="translate(-35.261 -176.622)"/>
            <path id="Path_803" data-name="Path 803" d="M265,395.228c4,.22,4.14-1.873,3.909-2.313S266.723,391.632,265,395.228Z" transform="translate(-39.014 -182.251)"/>
            <path id="Path_804" data-name="Path 804" d="M289,407.228c4,.22,4.14-1.873,3.908-2.313S290.723,403.632,289,407.228Z" transform="translate(-35.261 -180.375)"/>
            <path id="Path_805" data-name="Path 805" d="M283.509,428.946c-.231.4-.081,2.5,3.909,2.313C285.648,427.627,283.752,428.529,283.509,428.946Z" transform="translate(-36.13 -176.618)"/>
            <path id="Path_806" data-name="Path 806" d="M283.509,404.946c-.231.4-.081,2.5,3.909,2.313C285.648,403.627,283.752,404.529,283.509,404.946Z" transform="translate(-36.13 -180.37)"/>
            <path id="Path_807" data-name="Path 807" d="M288.068,450.35c-.474,0-2.209,1.156,0,4.521C290.277,451.529,288.542,450.35,288.068,450.35Z" transform="translate(-35.578 -173.207)"/>
            <path id="Path_808" data-name="Path 808" d="M289,455.228c4,.22,4.14-1.873,3.908-2.313S290.723,451.632,289,455.228Z" transform="translate(-35.261 -172.87)"/>
            <path id="Path_809" data-name="Path 809" d="M283.509,452.946c-.231.4-.081,2.5,3.909,2.313C285.648,451.627,283.752,452.529,283.509,452.946Z" transform="translate(-36.13 -172.865)"/>
            <path id="Path_810" data-name="Path 810" d="M216.068,222.35c-.474,0-2.209,1.156,0,4.521C218.277,223.529,216.542,222.35,216.068,222.35Z" transform="translate(-46.836 -208.855)"/>
            <path id="Path_811" data-name="Path 811" d="M192.49,210.68c0,.624.093,1.492.162,2.579a2.417,2.417,0,0,0-.162-2.579Z" transform="translate(-50.351 -210.68)"/>
            <path id="Path_812" data-name="Path 812" d="M219.983,224.53a2.1,2.1,0,0,0-1.388.486,4.624,4.624,0,0,0-.648.624,6.59,6.59,0,0,0-.624.89v.069c-.1.185-.22.393-.324.624a4.834,4.834,0,0,0,3.307-.694h0a2.083,2.083,0,0,0,.231-.208,1.8,1.8,0,0,0,.289-.416.856.856,0,0,0-.844-1.376Z" transform="translate(-46.519 -208.515)"/>
            <path id="Path_813" data-name="Path 813" d="M193,215.228c4,.22,4.14-1.873,3.908-2.313S194.723,211.632,193,215.228Z" transform="translate(-50.271 -210.395)"/>
            <path id="Path_814" data-name="Path 814" d="M169.129,271.629a1.55,1.55,0,0,0-.15-.509h0a1.679,1.679,0,0,0-.116-.208h0a1.376,1.376,0,0,0-.266-.3h0a1.076,1.076,0,0,0-.278-.173h0a.5.5,0,0,0-.463,0c-.532.231-1.4,1.156-.428,3.307a9.538,9.538,0,0,0,.659,1.156,9.539,9.539,0,0,0,.659-1.156,4.14,4.14,0,0,0,.439-1.746,2.843,2.843,0,0,0,0-.324Z" transform="translate(-54.338 -201.346)"/>
            <path id="Path_815" data-name="Path 815" d="M216.068,270.35c-.474,0-2.209,1.156,0,4.521C218.277,271.529,216.542,270.35,216.068,270.35Z" transform="translate(-46.836 -201.35)"/>
            <path id="Path_816" data-name="Path 816" d="M216.068,294.35c-.474,0-2.209,1.156,0,4.521C218.277,295.529,216.542,294.35,216.068,294.35Z" transform="translate(-46.836 -197.598)"/>
            <path id="Path_817" data-name="Path 817" d="M169.129,295.629a1.549,1.549,0,0,0-.15-.509h0a1.682,1.682,0,0,0-.116-.208h0a1.376,1.376,0,0,0-.266-.3h0a1.077,1.077,0,0,0-.278-.173h0a.5.5,0,0,0-.463,0c-.532.231-1.4,1.156-.428,3.307a9.538,9.538,0,0,0,.659,1.156,9.539,9.539,0,0,0,.659-1.156,4.139,4.139,0,0,0,.439-1.746,2.843,2.843,0,0,0,0-.324Z" transform="translate(-54.338 -197.593)"/>
            <path id="Path_818" data-name="Path 818" d="M192.068,282.35c-.474,0-2.209,1.156,0,4.521C194.277,283.529,192.542,282.35,192.068,282.35Z" transform="translate(-50.588 -199.474)"/>
            <path id="Path_819" data-name="Path 819" d="M240.068,282.35c-.474,0-2.209,1.156,0,4.521C242.277,283.529,240.542,282.35,240.068,282.35Z" transform="translate(-43.083 -199.474)"/>
            <path id="Path_820" data-name="Path 820" d="M216.068,246.35c-.474,0-2.209,1.156,0,4.521C218.277,247.53,216.542,246.35,216.068,246.35Z" transform="translate(-46.836 -205.103)"/>
            <path id="Path_821" data-name="Path 821" d="M192.068,258.35c-.474,0-2.209,1.156,0,4.521C194.277,259.529,192.542,258.35,192.068,258.35Z" transform="translate(-50.588 -203.227)"/>
            <path id="Path_822" data-name="Path 822" d="M240.068,258.35c-.474,0-2.209,1.156,0,4.521C242.277,259.529,240.542,258.35,240.068,258.35Z" transform="translate(-43.083 -203.227)"/>
            <path id="Path_823" data-name="Path 823" d="M169,275.228c4,.22,4.14-1.873,3.908-2.313S170.723,271.632,169,275.228Z" transform="translate(-54.024 -201.014)"/>
            <path id="Path_824" data-name="Path 824" d="M217,275.228c3.989.22,4.14-1.873,3.908-2.313S218.723,271.632,217,275.228Z" transform="translate(-46.519 -201.014)"/>
            <path id="Path_825" data-name="Path 825" d="M193,287.228c4,.22,4.14-1.873,3.908-2.313S194.723,283.632,193,287.228Z" transform="translate(-50.271 -199.137)"/>
            <path id="Path_826" data-name="Path 826" d="M241,287.228c3.989.22,4.14-1.873,3.909-2.313S242.723,283.632,241,287.228Z" transform="translate(-42.766 -199.137)"/>
            <path id="Path_827" data-name="Path 827" d="M217,251.228c3.989.22,4.14-1.873,3.908-2.313S218.723,247.632,217,251.228Z" transform="translate(-46.519 -204.766)"/>
            <path id="Path_828" data-name="Path 828" d="M193,263.228c4,.22,4.14-1.873,3.908-2.313S194.723,259.632,193,263.228Z" transform="translate(-50.271 -202.89)"/>
            <path id="Path_829" data-name="Path 829" d="M241,263.228c3.989.22,4.14-1.873,3.909-2.313S242.723,259.632,241,263.228Z" transform="translate(-42.766 -202.89)"/>
            <path id="Path_830" data-name="Path 830" d="M196.826,236.944c-.231-.393-1.92-1.156-3.6,1.677v.6C196.907,239.384,197.058,237.337,196.826,236.944Z" transform="translate(-50.235 -206.636)"/>
            <path id="Path_831" data-name="Path 831" d="M211.509,272.946c-.231.4-.081,2.5,3.908,2.313C213.648,271.627,211.752,272.529,211.509,272.946Z" transform="translate(-47.388 -201.009)"/>
            <path id="Path_832" data-name="Path 832" d="M211.507,296.946a1.434,1.434,0,0,0,.6,1.584h0a4.856,4.856,0,0,0,3.307.694,6.447,6.447,0,0,0-.37-.694C213.392,295.755,211.738,296.553,211.507,296.946Z" transform="translate(-47.386 -197.257)"/>
            <path id="Path_833" data-name="Path 833" d="M187.509,284.946c-.231.4-.081,2.5,3.908,2.313C189.648,283.627,187.752,284.529,187.509,284.946Z" transform="translate(-51.14 -199.133)"/>
            <path id="Path_834" data-name="Path 834" d="M259.51,272.946c-.243.4-.081,2.5,3.909,2.313C261.649,271.627,259.753,272.529,259.51,272.946Z" transform="translate(-39.883 -201.009)"/>
            <path id="Path_835" data-name="Path 835" d="M263.045,298.53c-1.654-2.775-3.307-1.977-3.538-1.584a1.434,1.434,0,0,0,.6,1.584h0a4.833,4.833,0,0,0,3.307.694,6.436,6.436,0,0,0-.37-.694Z" transform="translate(-39.881 -197.257)"/>
            <path id="Path_836" data-name="Path 836" d="M235.51,284.946c-.243.4-.081,2.5,3.909,2.313C237.649,283.627,235.753,284.529,235.51,284.946Z" transform="translate(-43.636 -199.133)"/>
            <path id="Path_837" data-name="Path 837" d="M211.509,248.946c-.231.4-.081,2.5,3.908,2.313C213.648,247.627,211.752,248.529,211.509,248.946Z" transform="translate(-47.388 -204.761)"/>
            <path id="Path_838" data-name="Path 838" d="M187.509,260.946c-.231.4-.081,2.5,3.908,2.313C189.648,259.627,187.752,260.529,187.509,260.946Z" transform="translate(-51.14 -202.885)"/>
            <path id="Path_839" data-name="Path 839" d="M235.51,260.946c-.243.4-.081,2.5,3.909,2.313C237.649,259.627,235.753,260.529,235.51,260.946Z" transform="translate(-43.636 -202.885)"/>
            <path id="Path_840" data-name="Path 840" d="M237.244,239.052c-.1-.324-.208-.636-.3-.971s-.254-1.006-.37-1.549a1.226,1.226,0,0,0-1.064.416C235.324,237.26,235.382,238.578,237.244,239.052Z" transform="translate(-43.636 -206.639)"/>
            <path id="Path_841" data-name="Path 841" d="M215.048,226.531a6.6,6.6,0,0,0-.624-.89,4.048,4.048,0,0,0-.648-.624,2.1,2.1,0,0,0-1.388-.486.849.849,0,0,0-.8,1.376,1.8,1.8,0,0,0,.289.416l.231.208h0a4.857,4.857,0,0,0,3.307.694c-.1-.231-.22-.439-.324-.624Z" transform="translate(-47.388 -208.515)"/>
            <path id="Path_842" data-name="Path 842" d="M169.129,343.629a1.549,1.549,0,0,0-.15-.509h0a1.676,1.676,0,0,0-.116-.208h0a1.376,1.376,0,0,0-.266-.3h0a1.076,1.076,0,0,0-.278-.173h0a.5.5,0,0,0-.463,0c-.532.231-1.4,1.156-.428,3.307a9.536,9.536,0,0,0,.659,1.156,9.537,9.537,0,0,0,.659-1.156,4.139,4.139,0,0,0,.439-1.746,2.844,2.844,0,0,0,0-.324Z" transform="translate(-54.338 -190.088)"/>
            <path id="Path_843" data-name="Path 843" d="M216.068,342.35c-.474,0-2.209,1.156,0,4.521C218.277,343.529,216.542,342.35,216.068,342.35Z" transform="translate(-46.836 -190.093)"/>
            <path id="Path_844" data-name="Path 844" d="M216.068,366.35c-.474,0-2.209,1.156,0,4.521C218.277,367.53,216.542,366.35,216.068,366.35Z" transform="translate(-46.836 -186.34)"/>
            <path id="Path_845" data-name="Path 845" d="M169.129,367.629a1.55,1.55,0,0,0-.15-.509h0a1.678,1.678,0,0,0-.116-.208h0a1.374,1.374,0,0,0-.266-.3h0a1.076,1.076,0,0,0-.278-.173h0a.486.486,0,0,0-.463,0c-.532.231-1.4,1.156-.428,3.307a9.536,9.536,0,0,0,.659,1.156,9.538,9.538,0,0,0,.659-1.156,4.14,4.14,0,0,0,.439-1.746,2.843,2.843,0,0,0,0-.324Z" transform="translate(-54.338 -186.336)"/>
            <path id="Path_846" data-name="Path 846" d="M192.068,354.35c-.474,0-2.209,1.156,0,4.521C194.277,355.529,192.542,354.35,192.068,354.35Z" transform="translate(-50.588 -188.217)"/>
            <path id="Path_847" data-name="Path 847" d="M240.068,354.35c-.474,0-2.209,1.156,0,4.521C242.277,355.529,240.542,354.35,240.068,354.35Z" transform="translate(-43.083 -188.217)"/>
            <path id="Path_848" data-name="Path 848" d="M169.129,319.629a1.55,1.55,0,0,0-.15-.509h0a1.679,1.679,0,0,0-.116-.208h0a1.377,1.377,0,0,0-.266-.3h0a1.075,1.075,0,0,0-.278-.173h0a.5.5,0,0,0-.463,0c-.532.231-1.4,1.156-.428,3.307a9.539,9.539,0,0,0,.659,1.156,9.541,9.541,0,0,0,.659-1.156,4.14,4.14,0,0,0,.439-1.746,2.843,2.843,0,0,0,0-.324Z" transform="translate(-54.338 -193.841)"/>
            <path id="Path_849" data-name="Path 849" d="M216.068,318.35c-.474,0-2.209,1.156,0,4.521C218.277,319.529,216.542,318.35,216.068,318.35Z" transform="translate(-46.836 -193.845)"/>
            <path id="Path_850" data-name="Path 850" d="M192.068,330.35c-.474,0-2.209,1.156,0,4.521C194.277,331.53,192.542,330.35,192.068,330.35Z" transform="translate(-50.588 -191.969)"/>
            <path id="Path_851" data-name="Path 851" d="M240.068,330.35c-.474,0-2.209,1.156,0,4.521C242.277,331.53,240.542,330.35,240.068,330.35Z" transform="translate(-43.083 -191.969)"/>
            <path id="Path_852" data-name="Path 852" d="M192.068,306.35c-.474,0-2.209,1.156,0,4.521C194.277,307.529,192.542,306.35,192.068,306.35Z" transform="translate(-50.588 -195.722)"/>
            <path id="Path_853" data-name="Path 853" d="M240.068,306.35c-.474,0-2.209,1.156,0,4.521C242.277,307.529,240.542,306.35,240.068,306.35Z" transform="translate(-43.083 -195.722)"/>
            <path id="Path_854" data-name="Path 854" d="M169,347.228c4,.22,4.14-1.873,3.908-2.313S170.723,343.632,169,347.228Z" transform="translate(-54.024 -189.756)"/>
            <path id="Path_855" data-name="Path 855" d="M217,347.228c3.989.22,4.14-1.873,3.908-2.313S218.723,343.632,217,347.228Z" transform="translate(-46.519 -189.756)"/>
            <path id="Path_856" data-name="Path 856" d="M219.983,368.53a2.1,2.1,0,0,0-1.388.486,4.631,4.631,0,0,0-.648.624,6.594,6.594,0,0,0-.624.89v.069c-.1.185-.22.393-.324.624a4.833,4.833,0,0,0,3.307-.694h0a2.078,2.078,0,0,0,.231-.208,1.8,1.8,0,0,0,.289-.416.856.856,0,0,0-.844-1.376Z" transform="translate(-46.519 -186)"/>
            <path id="Path_857" data-name="Path 857" d="M171.983,368.532a2.1,2.1,0,0,0-1.388.486,4.623,4.623,0,0,0-.648.624,6.6,6.6,0,0,0-.624.89v.069c-.1.185-.22.393-.324.624a4.833,4.833,0,0,0,3.307-.694h0a2.077,2.077,0,0,0,.231-.208,1.8,1.8,0,0,0,.289-.416.844.844,0,0,0-.8-1.376Z" transform="translate(-54.024 -186.001)"/>
            <path id="Path_858" data-name="Path 858" d="M193,359.228c4,.22,4.14-1.873,3.908-2.313S194.723,355.632,193,359.228Z" transform="translate(-50.271 -187.88)"/>
            <path id="Path_859" data-name="Path 859" d="M241,359.228c3.989.22,4.14-1.873,3.909-2.313S242.723,355.632,241,359.228Z" transform="translate(-42.766 -187.88)"/>
            <path id="Path_860" data-name="Path 860" d="M169,323.228c4,.22,4.14-1.873,3.908-2.313S170.723,319.632,169,323.228Z" transform="translate(-54.024 -193.509)"/>
            <path id="Path_861" data-name="Path 861" d="M217,323.228c3.989.22,4.14-1.873,3.908-2.313S218.723,319.632,217,323.228Z" transform="translate(-46.519 -193.509)"/>
            <path id="Path_862" data-name="Path 862" d="M193,335.228c4,.22,4.14-1.873,3.908-2.313S194.723,331.632,193,335.228Z" transform="translate(-50.271 -191.632)"/>
            <path id="Path_863" data-name="Path 863" d="M241,335.228c3.989.22,4.14-1.873,3.909-2.313S242.723,331.632,241,335.228Z" transform="translate(-42.766 -191.632)"/>
            <path id="Path_864" data-name="Path 864" d="M193,311.228c4,.22,4.14-1.873,3.908-2.313S194.723,307.632,193,311.228Z" transform="translate(-50.271 -195.385)"/>
            <path id="Path_865" data-name="Path 865" d="M241,311.228c3.989.22,4.14-1.873,3.909-2.313S242.723,307.632,241,311.228Z" transform="translate(-42.766 -195.385)"/>
            <path id="Path_866" data-name="Path 866" d="M211.509,344.946c-.231.4-.081,2.5,3.908,2.313C213.648,343.627,211.752,344.529,211.509,344.946Z" transform="translate(-47.388 -189.751)"/>
            <path id="Path_867" data-name="Path 867" d="M187.509,356.946c-.231.4-.081,2.5,3.908,2.313C189.648,355.627,187.752,356.529,187.509,356.946Z" transform="translate(-51.14 -187.875)"/>
            <path id="Path_868" data-name="Path 868" d="M259.51,344.946c-.243.4-.081,2.5,3.909,2.313C261.649,343.627,259.753,344.529,259.51,344.946Z" transform="translate(-39.883 -189.751)"/>
            <path id="Path_869" data-name="Path 869" d="M235.51,356.946c-.243.4-.081,2.5,3.909,2.313C237.649,355.627,235.753,356.529,235.51,356.946Z" transform="translate(-43.636 -187.875)"/>
            <path id="Path_870" data-name="Path 870" d="M173.59,378.563s30.065,7.713,67.832-21.578,52.429-17.738,50.88,3.076-33.916,40.091-47.792,42.4C221.694,406.269,201.342,412.49,173.59,378.563Z" transform="translate(-53.306 -190.563)"/>
            <path id="Path_871" data-name="Path 871" d="M211.509,320.946c-.231.4-.081,2.5,3.908,2.313C213.648,319.627,211.752,320.529,211.509,320.946Z" transform="translate(-47.388 -193.504)"/>
            <path id="Path_872" data-name="Path 872" d="M187.509,332.946c-.231.4-.081,2.5,3.908,2.313C189.648,331.627,187.752,332.529,187.509,332.946Z" transform="translate(-51.14 -191.628)"/>
            <path id="Path_873" data-name="Path 873" d="M259.51,320.946c-.243.4-.081,2.5,3.909,2.313C261.649,319.627,259.753,320.529,259.51,320.946Z" transform="translate(-39.883 -193.504)"/>
            <path id="Path_874" data-name="Path 874" d="M235.51,332.946c-.243.4-.081,2.5,3.909,2.313C237.649,331.627,235.753,332.529,235.51,332.946Z" transform="translate(-43.636 -191.628)"/>
            <path id="Path_875" data-name="Path 875" d="M187.509,308.946c-.231.4-.081,2.5,3.908,2.313C189.648,307.627,187.752,308.529,187.509,308.946Z" transform="translate(-51.14 -195.38)"/>
            <path id="Path_876" data-name="Path 876" d="M235.51,308.946c-.243.4-.081,2.5,3.909,2.313C237.649,307.627,235.753,308.529,235.51,308.946Z" transform="translate(-43.636 -195.38)"/>
            <path id="Path_877" data-name="Path 877" d="M220.267,298.529h0a1.434,1.434,0,0,0,.6-1.584c-.231-.393-1.885-1.156-3.538,1.584h0a6.454,6.454,0,0,0-.37.694A4.833,4.833,0,0,0,220.267,298.529Z" transform="translate(-46.525 -197.255)"/>
            <path id="Path_878" data-name="Path 878" d="M172.267,298.529h0a1.434,1.434,0,0,0,.6-1.584c-.231-.393-1.885-1.156-3.538,1.584h0a6.44,6.44,0,0,0-.37.694A4.833,4.833,0,0,0,172.267,298.529Z" transform="translate(-54.03 -197.255)"/>
            <path id="Path_879" data-name="Path 879" d="M169.129,415.629a1.549,1.549,0,0,0-.15-.509h0a1.677,1.677,0,0,0-.116-.208h0a1.376,1.376,0,0,0-.266-.3h0a1.075,1.075,0,0,0-.278-.173h0a.486.486,0,0,0-.463,0c-.532.231-1.4,1.156-.428,3.307a9.534,9.534,0,0,0,.659,1.156,9.534,9.534,0,0,0,.659-1.156,4.139,4.139,0,0,0,.439-1.746,2.842,2.842,0,0,0,0-.324Z" transform="translate(-54.338 -178.831)"/>
            <path id="Path_880" data-name="Path 880" d="M216.068,414.35c-.474,0-2.209,1.156,0,4.521C218.277,415.529,216.542,414.35,216.068,414.35Z" transform="translate(-46.836 -178.835)"/>
            <path id="Path_881" data-name="Path 881" d="M216.068,438.35c-.474,0-2.209,1.156,0,4.521C218.277,439.529,216.542,438.35,216.068,438.35Z" transform="translate(-46.836 -175.083)"/>
            <path id="Path_882" data-name="Path 882" d="M169.129,439.629a1.55,1.55,0,0,0-.15-.509h0a1.674,1.674,0,0,0-.116-.208h0a1.376,1.376,0,0,0-.266-.3h0a1.074,1.074,0,0,0-.278-.173h0a.486.486,0,0,0-.463,0c-.532.231-1.4,1.156-.428,3.307a9.541,9.541,0,0,0,.659,1.156,9.542,9.542,0,0,0,.659-1.156,4.14,4.14,0,0,0,.439-1.746,2.843,2.843,0,0,0,0-.324Z" transform="translate(-54.338 -175.078)"/>
            <path id="Path_883" data-name="Path 883" d="M192.068,426.35c-.474,0-2.209,1.156,0,4.521C194.277,427.53,192.542,426.35,192.068,426.35Z" transform="translate(-50.588 -176.959)"/>
            <path id="Path_884" data-name="Path 884" d="M240.068,426.35c-.474,0-2.209,1.156,0,4.521C242.277,427.53,240.542,426.35,240.068,426.35Z" transform="translate(-43.083 -176.959)"/>
            <path id="Path_885" data-name="Path 885" d="M169.129,391.629a1.549,1.549,0,0,0-.15-.509h0a1.676,1.676,0,0,0-.116-.208h0a1.376,1.376,0,0,0-.266-.3h0a1.077,1.077,0,0,0-.278-.173h0a.486.486,0,0,0-.463,0c-.532.231-1.4,1.156-.428,3.307a9.534,9.534,0,0,0,.659,1.156,9.536,9.536,0,0,0,.659-1.156,4.139,4.139,0,0,0,.439-1.746,2.843,2.843,0,0,0,0-.324Z" transform="translate(-54.338 -182.583)"/>
            <path id="Path_886" data-name="Path 886" d="M216.068,390.35c-.474,0-2.209,1.156,0,4.521C218.277,391.529,216.542,390.35,216.068,390.35Z" transform="translate(-46.836 -182.588)"/>
            <path id="Path_887" data-name="Path 887" d="M192.068,402.35c-.474,0-2.209,1.156,0,4.521C194.277,403.529,192.542,402.35,192.068,402.35Z" transform="translate(-50.588 -180.712)"/>
            <path id="Path_888" data-name="Path 888" d="M240.068,402.35c-.474,0-2.209,1.156,0,4.521C242.277,403.529,240.542,402.35,240.068,402.35Z" transform="translate(-43.083 -180.712)"/>
            <path id="Path_889" data-name="Path 889" d="M192.068,378.35c-.474,0-2.209,1.156,0,4.521C194.277,379.529,192.542,378.35,192.068,378.35Z" transform="translate(-50.588 -184.464)"/>
            <path id="Path_890" data-name="Path 890" d="M240.068,378.35c-.474,0-2.209,1.156,0,4.521C242.277,379.529,240.542,378.35,240.068,378.35Z" transform="translate(-43.083 -184.464)"/>
            <path id="Path_891" data-name="Path 891" d="M169,419.228c4,.22,4.14-1.873,3.908-2.313S170.723,415.632,169,419.228Z" transform="translate(-54.024 -178.499)"/>
            <path id="Path_892" data-name="Path 892" d="M217,419.228c3.989.22,4.14-1.873,3.908-2.313S218.723,415.632,217,419.228Z" transform="translate(-46.519 -178.499)"/>
            <path id="Path_893" data-name="Path 893" d="M219.99,440.53h-.243a1.918,1.918,0,0,0-.844.266l-.3.208a5.341,5.341,0,0,0-1.272,1.515h0a6.441,6.441,0,0,0-.37.694,4.833,4.833,0,0,0,3.307-.694h0a1.434,1.434,0,0,0,.6-1.584A1.156,1.156,0,0,0,219.99,440.53Z" transform="translate(-46.525 -174.742)"/>
            <path id="Path_894" data-name="Path 894" d="M171.99,440.53h-.243a1.918,1.918,0,0,0-.844.266l-.3.208a5.341,5.341,0,0,0-1.272,1.515h0a6.439,6.439,0,0,0-.37.694,4.833,4.833,0,0,0,3.307-.694h0a1.434,1.434,0,0,0,.6-1.584A1.156,1.156,0,0,0,171.99,440.53Z" transform="translate(-54.03 -174.742)"/>
            <path id="Path_895" data-name="Path 895" d="M193,431.228c4,.22,4.14-1.873,3.908-2.313S194.723,427.632,193,431.228Z" transform="translate(-50.271 -176.622)"/>
            <path id="Path_896" data-name="Path 896" d="M241,431.228c3.989.22,4.14-1.873,3.909-2.313S242.723,427.632,241,431.228Z" transform="translate(-42.766 -176.622)"/>
            <path id="Path_897" data-name="Path 897" d="M169,395.228c4,.22,4.14-1.873,3.908-2.313S170.723,391.632,169,395.228Z" transform="translate(-54.024 -182.251)"/>
            <path id="Path_898" data-name="Path 898" d="M217,395.228c3.989.22,4.14-1.873,3.908-2.313S218.723,391.632,217,395.228Z" transform="translate(-46.519 -182.251)"/>
            <path id="Path_899" data-name="Path 899" d="M193,407.228c4,.22,4.14-1.873,3.908-2.313S194.723,403.632,193,407.228Z" transform="translate(-50.271 -180.375)"/>
            <path id="Path_900" data-name="Path 900" d="M241,407.228c3.989.22,4.14-1.873,3.909-2.313S242.723,403.632,241,407.228Z" transform="translate(-42.766 -180.375)"/>
            <path id="Path_901" data-name="Path 901" d="M193,383.228c4,.22,4.14-1.873,3.908-2.313S194.723,379.632,193,383.228Z" transform="translate(-50.271 -184.127)"/>
            <path id="Path_902" data-name="Path 902" d="M241,383.228c3.989.22,4.14-1.873,3.909-2.313S242.723,379.632,241,383.228Z" transform="translate(-42.766 -184.127)"/>
            <path id="Path_903" data-name="Path 903" d="M211.509,416.946c-.231.4-.081,2.5,3.908,2.313C213.648,415.627,211.752,416.529,211.509,416.946Z" transform="translate(-47.388 -178.494)"/>
            <path id="Path_904" data-name="Path 904" d="M213.773,441.064l-.3-.208a1.873,1.873,0,0,0-.844-.266h-.243a1.156,1.156,0,0,0-.879.416,1.434,1.434,0,0,0,.6,1.584h0a4.856,4.856,0,0,0,3.307.694,6.435,6.435,0,0,0-.37-.694,5.156,5.156,0,0,0-1.272-1.526Z" transform="translate(-47.386 -174.733)"/>
            <path id="Path_905" data-name="Path 905" d="M187.509,428.946c-.231.4-.081,2.5,3.908,2.313C189.648,427.627,187.752,428.529,187.509,428.946Z" transform="translate(-51.14 -176.618)"/>
            <path id="Path_906" data-name="Path 906" d="M259.51,416.946c-.243.4-.081,2.5,3.909,2.313C261.649,415.627,259.753,416.529,259.51,416.946Z" transform="translate(-39.883 -178.494)"/>
            <path id="Path_907" data-name="Path 907" d="M263.045,442.529a5.343,5.343,0,0,0-1.272-1.515l-.3-.208a1.92,1.92,0,0,0-.844-.266h-.243a1.156,1.156,0,0,0-.879.416,1.434,1.434,0,0,0,.6,1.584h0a4.834,4.834,0,0,0,3.307.694,6.446,6.446,0,0,0-.37-.694Z" transform="translate(-39.881 -174.74)"/>
            <path id="Path_908" data-name="Path 908" d="M235.51,428.946c-.243.4-.081,2.5,3.909,2.313C237.649,427.627,235.753,428.529,235.51,428.946Z" transform="translate(-43.636 -176.618)"/>
            <path id="Path_909" data-name="Path 909" d="M211.509,392.946c-.231.4-.081,2.5,3.908,2.313C213.648,391.627,211.752,392.529,211.509,392.946Z" transform="translate(-47.388 -182.246)"/>
            <path id="Path_910" data-name="Path 910" d="M187.509,404.946c-.231.4-.081,2.5,3.908,2.313C189.648,403.627,187.752,404.529,187.509,404.946Z" transform="translate(-51.14 -180.37)"/>
            <path id="Path_911" data-name="Path 911" d="M259.51,392.946c-.243.4-.081,2.5,3.909,2.313C261.649,391.627,259.753,392.529,259.51,392.946Z" transform="translate(-39.883 -182.246)"/>
            <path id="Path_912" data-name="Path 912" d="M235.51,404.946c-.243.4-.081,2.5,3.909,2.313C237.649,403.627,235.753,404.529,235.51,404.946Z" transform="translate(-43.636 -180.37)"/>
            <path id="Path_913" data-name="Path 913" d="M187.509,380.946c-.231.4-.081,2.5,3.908,2.313C189.648,379.627,187.752,380.529,187.509,380.946Z" transform="translate(-51.14 -184.123)"/>
            <path id="Path_914" data-name="Path 914" d="M235.51,380.946c-.243.4-.081,2.5,3.909,2.313C237.649,379.627,235.753,380.529,235.51,380.946Z" transform="translate(-43.636 -184.123)"/>
            <path id="Path_915" data-name="Path 915" d="M215.048,370.531a6.6,6.6,0,0,0-.624-.89,4.045,4.045,0,0,0-.648-.624,2.1,2.1,0,0,0-1.388-.486.849.849,0,0,0-.8,1.376,1.8,1.8,0,0,0,.289.416l.231.208h0a4.857,4.857,0,0,0,3.307.694c-.1-.231-.22-.439-.324-.624Z" transform="translate(-47.388 -186)"/>
            <path id="Path_916" data-name="Path 916" d="M263.048,370.531a6.59,6.59,0,0,0-.624-.89,4.626,4.626,0,0,0-.648-.624,2.1,2.1,0,0,0-1.388-.486.849.849,0,0,0-.8,1.376,1.8,1.8,0,0,0,.289.416,2.077,2.077,0,0,0,.231.208h0a4.833,4.833,0,0,0,3.307.694c-.1-.231-.22-.439-.324-.624a.242.242,0,0,1-.046-.069Z" transform="translate(-39.883 -186)"/>
            <path id="Path_917" data-name="Path 917" d="M192.068,450.35c-.474,0-2.209,1.156,0,4.521C194.277,451.529,192.542,450.35,192.068,450.35Z" transform="translate(-50.588 -173.207)"/>
            <path id="Path_918" data-name="Path 918" d="M240.068,450.35c-.474,0-2.209,1.156,0,4.521C242.277,451.529,240.542,450.35,240.068,450.35Z" transform="translate(-43.083 -173.207)"/>
            <path id="Path_919" data-name="Path 919" d="M193,455.228c4,.22,4.14-1.873,3.908-2.313S194.723,451.632,193,455.228Z" transform="translate(-50.271 -172.87)"/>
            <path id="Path_920" data-name="Path 920" d="M241,455.228c3.989.22,4.14-1.873,3.909-2.313S242.723,451.632,241,455.228Z" transform="translate(-42.766 -172.87)"/>
            <path id="Path_921" data-name="Path 921" d="M187.509,452.946c-.231.4-.081,2.5,3.908,2.313C189.648,451.627,187.752,452.529,187.509,452.946Z" transform="translate(-51.14 -172.865)"/>
            <path id="Path_922" data-name="Path 922" d="M235.51,452.946c-.243.4-.081,2.5,3.909,2.313C237.649,451.627,235.753,452.529,235.51,452.946Z" transform="translate(-43.636 -172.865)"/>
            <path id="Path_923" data-name="Path 923" d="M120.068,294.35c-.474,0-2.209,1.156,0,4.521C122.277,295.529,120.542,294.35,120.068,294.35Z" transform="translate(-61.846 -197.598)"/>
            <path id="Path_924" data-name="Path 924" d="M144.068,282.35c-.474,0-2.209,1.156,0,4.521C146.277,283.529,144.542,282.35,144.068,282.35Z" transform="translate(-58.093 -199.474)"/>
            <path id="Path_925" data-name="Path 925" d="M145.086,259.27l-2.116.543a5.378,5.378,0,0,0,1.1,2.914C145.144,261.109,145.317,259.987,145.086,259.27Z" transform="translate(-58.094 -203.083)"/>
            <path id="Path_926" data-name="Path 926" d="M121,275.228c3.989.22,4.14-1.873,3.908-2.313S122.723,271.632,121,275.228Z" transform="translate(-61.529 -201.014)"/>
            <path id="Path_927" data-name="Path 927" d="M145,287.228c3.989.22,4.14-1.873,3.909-2.313S146.723,283.632,145,287.228Z" transform="translate(-57.776 -199.137)"/>
            <path id="Path_928" data-name="Path 928" d="M145,263.228c3.989.22,4.14-1.873,3.909-2.313S146.723,259.632,145,263.228Z" transform="translate(-57.776 -202.89)"/>
            <path id="Path_929" data-name="Path 929" d="M115.507,296.946a1.434,1.434,0,0,0,.6,1.584h0a4.856,4.856,0,0,0,3.307.694,6.443,6.443,0,0,0-.37-.694C117.392,295.755,115.738,296.553,115.507,296.946Z" transform="translate(-62.396 -197.257)"/>
            <path id="Path_930" data-name="Path 930" d="M163.51,272.946c-.243.4-.081,2.5,3.908,2.313C165.649,271.627,163.753,272.529,163.51,272.946Z" transform="translate(-54.893 -201.009)"/>
            <path id="Path_931" data-name="Path 931" d="M167.045,298.53c-1.654-2.775-3.307-1.977-3.538-1.584a1.434,1.434,0,0,0,.6,1.584h0a4.833,4.833,0,0,0,3.307.694,6.444,6.444,0,0,0-.37-.694Z" transform="translate(-54.891 -197.257)"/>
            <path id="Path_932" data-name="Path 932" d="M139.51,284.946c-.243.4-.081,2.5,3.908,2.313C141.649,283.627,139.753,284.529,139.51,284.946Z" transform="translate(-58.646 -199.133)"/>
            <path id="Path_933" data-name="Path 933" d="M140.354,260.541l-.6.185a.763.763,0,0,0-.243.22c-.243.4-.081,2.5,3.908,2.313C142.3,260.934,141.129,260.471,140.354,260.541Z" transform="translate(-58.646 -202.885)"/>
            <path id="Path_934" data-name="Path 934" d="M72.068,342.35c-.474,0-2.209,1.156,0,4.521C74.277,343.529,72.542,342.35,72.068,342.35Z" transform="translate(-69.351 -190.093)"/>
            <path id="Path_935" data-name="Path 935" d="M96.068,354.35c-.474,0-2.209,1.156,0,4.521C98.277,355.529,96.542,354.35,96.068,354.35Z" transform="translate(-65.598 -188.217)"/>
            <path id="Path_936" data-name="Path 936" d="M120.068,318.35c-.474,0-2.209,1.156,0,4.521C122.277,319.529,120.542,318.35,120.068,318.35Z" transform="translate(-61.846 -193.845)"/>
            <path id="Path_937" data-name="Path 937" d="M96.068,330.35c-.474,0-2.209,1.156,0,4.521C98.277,331.53,96.542,330.35,96.068,330.35Z" transform="translate(-65.598 -191.969)"/>
            <path id="Path_938" data-name="Path 938" d="M144.068,330.35c-.474,0-2.209,1.156,0,4.521C146.277,331.53,144.542,330.35,144.068,330.35Z" transform="translate(-58.093 -191.969)"/>
            <path id="Path_939" data-name="Path 939" d="M96.068,306.35c-.474,0-2.209,1.156,0,4.521C98.277,307.529,96.542,306.35,96.068,306.35Z" transform="translate(-65.598 -195.722)"/>
            <path id="Path_940" data-name="Path 940" d="M144.068,306.35c-.474,0-2.209,1.156,0,4.521C146.277,307.529,144.542,306.35,144.068,306.35Z" transform="translate(-58.093 -195.722)"/>
            <path id="Path_941" data-name="Path 941" d="M73,347.228c4,.22,4.151-1.873,3.908-2.313S74.723,343.632,73,347.228Z" transform="translate(-69.034 -189.756)"/>
            <path id="Path_942" data-name="Path 942" d="M97.55,358.045c1.029-.382,2.035-.809,3.03-1.3C100.094,356.426,98.845,356.206,97.55,358.045Z" transform="translate(-65.195 -187.876)"/>
            <path id="Path_943" data-name="Path 943" d="M76.682,320.937a.972.972,0,0,0-.544-.347c-.717.914-1.4,1.781-1.989,2.6C76.8,322.914,76.891,321.3,76.682,320.937Z" transform="translate(-68.854 -193.495)"/>
            <path id="Path_944" data-name="Path 944" d="M121,323.228c3.989.22,4.14-1.873,3.908-2.313S122.723,319.632,121,323.228Z" transform="translate(-61.529 -193.509)"/>
            <path id="Path_945" data-name="Path 945" d="M97,335.228c4,.22,4.14-1.873,3.908-2.313S98.723,331.632,97,335.228Z" transform="translate(-65.281 -191.632)"/>
            <path id="Path_946" data-name="Path 946" d="M145,335.228c3.989.22,4.14-1.873,3.909-2.313S146.723,331.632,145,335.228Z" transform="translate(-57.776 -191.632)"/>
            <path id="Path_947" data-name="Path 947" d="M97,311.228c4,.22,4.14-1.873,3.908-2.313S98.723,307.632,97,311.228Z" transform="translate(-65.281 -195.385)"/>
            <path id="Path_948" data-name="Path 948" d="M145,311.228c3.989.22,4.14-1.873,3.909-2.313S146.723,307.632,145,311.228Z" transform="translate(-57.776 -195.385)"/>
            <path id="Path_949" data-name="Path 949" d="M91.51,356.945c-.22.37-.1,2.128,2.937,2.313l.867-.2C93.579,355.673,91.752,356.54,91.51,356.945Z" transform="translate(-66.151 -187.874)"/>
            <path id="Path_950" data-name="Path 950" d="M163.51,344.946c-.243.4-.081,2.5,3.908,2.313C165.649,343.627,163.753,344.529,163.51,344.946Z" transform="translate(-54.893 -189.751)"/>
            <path id="Path_951" data-name="Path 951" d="M115.509,320.946c-.231.4-.081,2.5,3.908,2.313C117.648,319.627,115.752,320.529,115.509,320.946Z" transform="translate(-62.398 -193.504)"/>
            <path id="Path_952" data-name="Path 952" d="M91.509,332.946c-.231.4-.081,2.5,3.908,2.313C93.648,331.627,91.752,332.529,91.509,332.946Z" transform="translate(-66.15 -191.628)"/>
            <path id="Path_953" data-name="Path 953" d="M163.51,320.946c-.243.4-.081,2.5,3.908,2.313C165.649,319.627,163.753,320.529,163.51,320.946Z" transform="translate(-54.893 -193.504)"/>
            <path id="Path_954" data-name="Path 954" d="M91.509,308.946c-.231.4-.081,2.5,3.908,2.313C93.648,307.627,91.752,308.529,91.509,308.946Z" transform="translate(-66.15 -195.38)"/>
            <path id="Path_955" data-name="Path 955" d="M139.51,308.946c-.243.4-.081,2.5,3.908,2.313C141.649,307.627,139.753,308.529,139.51,308.946Z" transform="translate(-58.646 -195.38)"/>
            <path id="Path_956" data-name="Path 956" d="M124.267,298.529h0a1.434,1.434,0,0,0,.6-1.584c-.231-.393-1.885-1.156-3.538,1.584h0a6.443,6.443,0,0,0-.37.694A4.833,4.833,0,0,0,124.267,298.529Z" transform="translate(-61.535 -197.255)"/>
            <path id="Path_957" data-name="Path 957" d="M144.068,426.35c-.474,0-2.209,1.156,0,4.521C146.277,427.53,144.542,426.35,144.068,426.35Z" transform="translate(-58.093 -176.959)"/>
            <path id="Path_958" data-name="Path 958" d="M144.821,404.74l-.971,1.631.081.127a7.377,7.377,0,0,0,.89-1.758Z" transform="translate(-57.956 -180.338)"/>
            <path id="Path_959" data-name="Path 959" d="M145,431.228c3.989.22,4.14-1.873,3.909-2.313S146.723,427.632,145,431.228Z" transform="translate(-57.776 -176.622)"/>
            <path id="Path_960" data-name="Path 960" d="M145,407.228c3.989.22,4.14-1.873,3.909-2.313S146.723,403.632,145,407.228Z" transform="translate(-57.776 -180.375)"/>
            <path id="Path_961" data-name="Path 961" d="M163.51,416.946c-.243.4-.081,2.5,3.908,2.313C165.649,415.627,163.753,416.529,163.51,416.946Z" transform="translate(-54.893 -178.494)"/>
            <path id="Path_962" data-name="Path 962" d="M167.045,442.529a5.343,5.343,0,0,0-1.272-1.515l-.3-.208a1.92,1.92,0,0,0-.844-.266h-.243a1.156,1.156,0,0,0-.879.416,1.434,1.434,0,0,0,.6,1.584h0a4.834,4.834,0,0,0,3.307.694,6.441,6.441,0,0,0-.37-.694Z" transform="translate(-54.891 -174.74)"/>
            <path id="Path_963" data-name="Path 963" d="M139.51,428.946c-.243.4-.081,2.5,3.908,2.313C141.649,427.627,139.753,428.529,139.51,428.946Z" transform="translate(-58.646 -176.618)"/>
            <path id="Path_964" data-name="Path 964" d="M163.51,392.946c-.243.4-.081,2.5,3.908,2.313C165.649,391.627,163.753,392.529,163.51,392.946Z" transform="translate(-54.893 -182.246)"/>
            <path id="Path_965" data-name="Path 965" d="M167.048,370.531a6.594,6.594,0,0,0-.624-.89,4.63,4.63,0,0,0-.648-.624,2.1,2.1,0,0,0-1.388-.486.849.849,0,0,0-.8,1.376,1.8,1.8,0,0,0,.289.416,2.084,2.084,0,0,0,.231.208h0a4.833,4.833,0,0,0,3.307.694c-.1-.231-.22-.439-.324-.624Z" transform="translate(-54.893 -186)"/>
            <path id="Path_966" data-name="Path 966" d="M144.068,450.35c-.474,0-2.209,1.156,0,4.521C146.277,451.529,144.542,450.35,144.068,450.35Z" transform="translate(-58.093 -173.207)"/>
            <path id="Path_967" data-name="Path 967" d="M145,455.228c3.989.22,4.14-1.873,3.909-2.313S146.723,451.632,145,455.228Z" transform="translate(-57.776 -172.87)"/>
            <path id="Path_968" data-name="Path 968" d="M139.51,452.946c-.243.4-.081,2.5,3.908,2.313C141.649,451.627,139.753,452.529,139.51,452.946Z" transform="translate(-58.646 -172.865)"/>
            <path id="Path_969" data-name="Path 969" d="M69.57,345.05a21.886,21.886,0,0,0,.8,2.1h.717a6.209,6.209,0,0,0-1.515-2.1Z" transform="translate(-69.57 -189.671)"/>
          </g>
        </g>
        <path id="Path_971" data-name="Path 971" d="M339.913,493.67s2.07-28.388-10.407-56.789-15.287-30.447-15.287-38.761,8.349-18.016,9.737-36.714.694-27.753.694-27.753,29.776,47.087,50.556,49.862S408.45,366.9,400.83,340.58s-40.866-47.781-54.013-65.1-42.947-17.345-58.176-17.345-22.85-5.539-25.625-15.923-2.764-31.222-2.764-31.222-18.016,11.078-48.486-1.388c0,0,2.775,38.09-.694,43.629s-8.28,11.182-29.059,11.182-38.09,4.163-47.781,13.876S84.371,326.762,73.987,342,69.13,373.86,81.6,380.093s24.931.682,33.939-7.62,37.4-34.633,37.4-34.633,0,15.935,7.62,38.784,13.876,20.086,8.3,36.7S152.237,434.8,148.78,456.262a204.055,204.055,0,0,0-2.775,37.4" transform="translate(-61.521 -73.524)" fill="none" stroke="#263238" stroke-linecap="round" stroke-linejoin="round" stroke-width="1"/>
        <path id="Path_972" data-name="Path 972" d="M141.52,323.481a87.028,87.028,0,0,1,4.568-21.971" transform="translate(-50.11 -59.154)" fill="#fff" stroke="#263238" stroke-linecap="round" stroke-linejoin="round" stroke-width="1"/>
        <path id="Path_973" data-name="Path 973" d="M290.855,319.168a85.57,85.57,0,0,0-6.325-16.628" transform="translate(-27.75 -58.993)" fill="none" stroke="#263238" stroke-linecap="round" stroke-linejoin="round" stroke-width="1"/>
        <line id="Line_3" data-name="Line 3" y1="13.98" x2="43.618" transform="translate(161.381 322.954)" fill="none" stroke="#263238" stroke-linecap="round" stroke-linejoin="round" stroke-width="1"/>
        <path id="Path_974" data-name="Path 974" d="M219.11,374.508a141.364,141.364,0,0,1,31.684-8.638" transform="translate(-37.979 -49.091)" fill="none" stroke="#263238" stroke-linecap="round" stroke-linejoin="round" stroke-width="1"/>
        <path id="Path_975" data-name="Path 975" d="M213.132,310.839c34.552,6.661,47.885-26.457,52.522-52.926-11.506-1.272-17.565-6.626-19.97-15.634-2.764-10.407-2.764-31.222-2.764-31.222s-18.016,11.078-48.486-1.388c0,0,2.775,38.09-.694,43.629-2.405,3.862-5.5,7.724-14.177,9.7C179.251,274.888,181.645,304.757,213.132,310.839Z" transform="translate(-44.166 -73.513)" fill="#b2b2b2"/>
        <g id="Group_432" data-name="Group 432" transform="translate(135.374 136.157)" clip-path="url(#clip-path-2)">
          <path id="Path_976" data-name="Path 976" d="M242.918,238.85c-2.012-10.939-2.012-27.753-2.012-27.753s-18.016,11.078-48.486-1.388c0,0,1.156,15.923,1.041,28.678C219.687,247.5,234.858,243.637,242.918,238.85Z" transform="translate(-177.526 -209.664)" opacity="0.2"/>
        </g>
        <path id="Path_978" data-name="Path 978" d="M213.132,310.839c34.552,6.661,47.885-26.457,52.522-52.926-11.506-1.272-17.565-6.626-19.97-15.634-2.764-10.407-2.764-31.222-2.764-31.222s-18.016,11.078-48.486-1.388c0,0,2.775,38.09-.694,43.629-2.405,3.862-5.5,7.724-14.177,9.7C179.251,274.888,181.645,304.757,213.132,310.839Z" transform="translate(-44.166 -73.513)" fill="none" stroke="#263238" stroke-linecap="round" stroke-linejoin="round" stroke-width="1"/>
        <circle id="Ellipse_233" data-name="Ellipse 233" cx="8.58" cy="8.58" r="8.58" transform="translate(212.63 107.155)" fill="#fff" stroke="#263238" stroke-linecap="round" stroke-linejoin="round" stroke-width="1"/>
        <circle id="Ellipse_234" data-name="Ellipse 234" cx="8.58" cy="8.58" r="8.58" transform="translate(120.978 107.155)" fill="#fff" stroke="#263238" stroke-linecap="round" stroke-linejoin="round" stroke-width="1"/>
        <path id="Path_979" data-name="Path 979" d="M253.41,168.016s4.29-13.263,9.367-8.58-1.561,22.618-5.076,26.908-7.019,4.29-6.626-1.561S253.41,168.016,253.41,168.016Z" transform="translate(-32.986 -81.524)" fill="#b2b2b2" stroke="#263238" stroke-linecap="round" stroke-linejoin="round" stroke-width="1"/>
        <path id="Path_980" data-name="Path 980" d="M176.39,186.48s1.156,30.979,23.96,46.173,39.744,6.429,49.1-6.429,15.206-25.717,15.206-44.416,2.313-26.9-4.093-38.588-28.643-17.53-28.643-17.53a350.883,350.883,0,0,1-29.811,32.736C184.565,175.367,176.39,186.48,176.39,186.48Z" transform="translate(-44.658 -86.644)" fill="#b2b2b2"/>
        <g id="Group_433" data-name="Group 433" transform="translate(131.732 39.046)" clip-path="url(#clip-path-3)">
          <path id="Path_981" data-name="Path 981" d="M231.918,125.69a350.883,350.883,0,0,1-29.811,32.736c-17.542,16.941-25.717,28.053-25.717,28.053a71.035,71.035,0,0,0,3.55,17.727c30.805-23.566,47.63-65.912,52.105-78.482Z" transform="translate(-176.39 -125.69)" opacity="0.2"/>
        </g>
        <path id="Path_983" data-name="Path 983" d="M176.39,186.48s1.156,30.979,23.96,46.173,39.744,6.429,49.1-6.429,15.206-25.717,15.206-44.416,2.313-26.9-4.093-38.588-28.643-17.53-28.643-17.53a350.883,350.883,0,0,1-29.811,32.736C184.565,175.367,176.39,186.48,176.39,186.48Z" transform="translate(-44.658 -86.644)" fill="none" stroke="#263238" stroke-linecap="round" stroke-linejoin="round" stroke-width="1"/>
        <line id="Line_4" data-name="Line 4" x2="13.125" y2="1.226" transform="translate(153.298 96.193)" fill="none" stroke="#263238" stroke-linecap="round" stroke-linejoin="round" stroke-width="1"/>
        <path id="Path_984" data-name="Path 984" d="M229.44,174.849s8.615-1.642,12.72,0" transform="translate(-36.364 -79.072)" fill="none" stroke="#263238" stroke-linecap="round" stroke-linejoin="round" stroke-width="1"/>
        <path id="Path_985" data-name="Path 985" d="M205.7,170.685c0,3.122-1.4,5.655-3.122,5.655s-3.111-2.532-3.111-5.655,1.388-5.655,3.111-5.655S205.7,167.562,205.7,170.685Z" transform="translate(-41.05 -80.493)" fill="#263238"/>
        <path id="Path_986" data-name="Path 986" d="M210.93,187.156A11.4,11.4,0,0,0,224.587,186" transform="translate(-39.258 -77.214)" fill="none" stroke="#263238" stroke-linecap="round" stroke-linejoin="round" stroke-width="1"/>
        <path id="Path_987" data-name="Path 987" d="M214,199.949s12.084,5.076,19.1-11.309" transform="translate(-38.778 -76.801)" fill="none" stroke="#263238" stroke-linecap="round" stroke-linejoin="round" stroke-width="1"/>
        <path id="Path_988" data-name="Path 988" d="M227.46,170.492s7.412-5.076,14.824-1.954" transform="translate(-36.673 -80.103)" fill="none" stroke="#263238" stroke-linecap="round" stroke-linejoin="round" stroke-width="2"/>
        <path id="Path_989" data-name="Path 989" d="M225.44,159.561s8.187-8.187,19.5-1.561" transform="translate(-36.989 -81.997)" fill="none" stroke="#263238" stroke-linecap="round" stroke-linejoin="round" stroke-width="2"/>
        <path id="Path_990" data-name="Path 990" d="M212.529,155.008s-7.019-7.019-16.779-.382" transform="translate(-41.631 -82.566)" fill="none" stroke="#263238" stroke-linecap="round" stroke-linejoin="round" stroke-width="2"/>
        <path id="Path_991" data-name="Path 991" d="M74.936,324.11S62.47,337.986,62.47,352.5s8.3,27.753,31.222,48.474S138,436.982,147.011,441.838s18-1.388,18-1.388,14.894,14.882,16.617,11.425-5.192-8.661-6.58-10.731a28.447,28.447,0,0,0-4.151-4.5s7.273,1.029,10.049,3.469,7.262,6.58,9.343,6.233,2.081-2.081-1.041-6.233a37.072,37.072,0,0,0-9-8.314c-2.081-1.376-9.008-5.192-9.008-5.192s10.037-.694,13.506,1.388,12.812,8.314,13.506,5.539.694-4.5-2.775-7.62-10.407-6.938-14.535-7.62a42.94,42.94,0,0,1-8.314-2.417s7.967-2.775,10.731-2.775,13.876,5.539,16.964,4.857,1.388-3.469-1.029-5.2-13.159-5.886-17.669-6.233-29.776,8.314-32.887,8.314-11.078-11.078-19.392-25.972-11.425-38.09-29.082-46.046" transform="translate(-62.47 -55.62)" fill="#fff"/>
        <g id="Group_435" data-name="Group 435" transform="translate(0 268.49)" clip-path="url(#clip-path-4)">
          <g id="Group_434" data-name="Group 434" transform="translate(5.744 21.092)" opacity="0.2">
            <path id="Path_992" data-name="Path 992" d="M71.92,346.871c2.209-3.342.474-4.521,0-4.521C72.394,342.35,74.129,343.529,71.92,346.871Z" transform="translate(-66.737 -342.35)"/>
            <path id="Path_993" data-name="Path 993" d="M71.92,366.35c.474,0,2.209,1.156,0,4.521C74.129,367.53,72.394,366.35,71.92,366.35Z" transform="translate(-66.737 -338.598)"/>
            <path id="Path_994" data-name="Path 994" d="M96.068,354.35c-.474,0-2.209,1.156,0,4.521C98.277,355.529,96.542,354.35,96.068,354.35Z" transform="translate(-63.133 -340.474)"/>
            <path id="Path_995" data-name="Path 995" d="M76.868,344.946c-.243-.416-2.139-1.318-3.908,2.313C76.961,347.443,77.111,345.35,76.868,344.946Z" transform="translate(-66.574 -342.009)"/>
            <path id="Path_996" data-name="Path 996" d="M76.428,370.324a1.8,1.8,0,0,0,.289-.416.844.844,0,0,0-.8-1.376,2.1,2.1,0,0,0-1.388.486,4.622,4.622,0,0,0-.648.624,6.6,6.6,0,0,0-.624.89H76.2A2.075,2.075,0,0,0,76.428,370.324Z" transform="translate(-66.527 -338.259)"/>
            <path id="Path_997" data-name="Path 997" d="M100.868,356.946c-.243-.416-2.139-1.318-3.908,2.313C100.961,359.443,101.1,357.35,100.868,356.946Z" transform="translate(-62.822 -340.132)"/>
            <path id="Path_998" data-name="Path 998" d="M95.418,359.225c-1.769-3.6-3.666-2.694-3.908-2.313S91.429,359.445,95.418,359.225Z" transform="translate(-63.685 -340.134)"/>
            <path id="Path_999" data-name="Path 999" d="M71.92,342.35v4.521C74.129,343.529,72.394,342.35,71.92,342.35Z" transform="translate(-66.737 -342.35)"/>
            <path id="Path_1000" data-name="Path 1000" d="M71.92,366.35v4.521C74.129,367.53,72.394,366.35,71.92,366.35Z" transform="translate(-66.737 -338.598)"/>
            <path id="Path_1001" data-name="Path 1001" d="M120.044,414.35a1.249,1.249,0,0,0-.914.775l1.954,1.434C121.373,414.963,120.39,414.35,120.044,414.35Z" transform="translate(-59.355 -331.092)"/>
            <path id="Path_1002" data-name="Path 1002" d="M144.064,426.35A1.4,1.4,0,0,0,143,427.634a19.015,19.015,0,0,0,2.07-.277,1.33,1.33,0,0,0-1.006-1.006Z" transform="translate(-55.623 -329.216)"/>
            <path id="Path_1003" data-name="Path 1003" d="M120.068,390.35c-.474,0-2.209,1.156,0,4.521C122.277,391.529,120.542,390.35,120.068,390.35Z" transform="translate(-59.38 -334.845)"/>
            <path id="Path_1004" data-name="Path 1004" d="M144.069,406.871c2.209-3.342.474-4.521,0-4.521S141.849,403.529,144.069,406.871Z" transform="translate(-55.628 -332.969)"/>
            <path id="Path_1005" data-name="Path 1005" d="M96.069,382.871c2.209-3.342.474-4.521,0-4.521S93.849,379.529,96.069,382.871Z" transform="translate(-63.133 -336.721)"/>
            <path id="Path_1006" data-name="Path 1006" d="M124.689,416.946c-.185-.312-1.3-.9-2.579.335.624.462,1.249.9,1.862,1.33a1.457,1.457,0,0,0,.717-1.665Z" transform="translate(-58.89 -330.752)"/>
            <path id="Path_1007" data-name="Path 1007" d="M121,395.228c3.989.22,4.14-1.873,3.908-2.313S122.723,391.632,121,395.228Z" transform="translate(-59.063 -334.508)"/>
            <path id="Path_1008" data-name="Path 1008" d="M145,407.228c3.989.22,4.14-1.873,3.909-2.313S146.723,403.632,145,407.228Z" transform="translate(-55.311 -332.632)"/>
            <path id="Path_1009" data-name="Path 1009" d="M97,383.228c4,.22,4.14-1.873,3.908-2.313S98.723,379.632,97,383.228Z" transform="translate(-62.816 -336.384)"/>
            <path id="Path_1010" data-name="Path 1010" d="M167.013,419.2c-.994-.786-1.908-1.422-2.6-1.9l-.809-.509-.093.116C163.278,417.3,163.429,419.253,167.013,419.2Z" transform="translate(-52.428 -330.711)"/>
            <path id="Path_1011" data-name="Path 1011" d="M119.418,395.225c-1.769-3.6-3.666-2.694-3.908-2.313S115.429,395.445,119.418,395.225Z" transform="translate(-59.933 -334.505)"/>
            <path id="Path_1012" data-name="Path 1012" d="M139.51,404.946c-.243.4-.081,2.5,3.908,2.313C141.649,403.627,139.753,404.529,139.51,404.946Z" transform="translate(-56.18 -332.627)"/>
            <path id="Path_1013" data-name="Path 1013" d="M91.509,380.946c-.231.4-.081,2.5,3.908,2.313C93.648,379.627,91.752,380.529,91.509,380.946Z" transform="translate(-63.685 -336.38)"/>
            <path id="Path_1014" data-name="Path 1014" d="M76.261,370.26H73.324a.244.244,0,0,1,0,.069c-.1.185-.22.393-.324.624a4.834,4.834,0,0,0,3.261-.694Z" transform="translate(-66.568 -337.986)"/>
            <path id="Path_1015" data-name="Path 1015" d="M72.068,342.35c-.474,0-2.209,1.156,0,4.521Z" transform="translate(-66.885 -342.35)"/>
            <path id="Path_1016" data-name="Path 1016" d="M72.069,370.871V366.35C71.595,366.35,69.849,367.53,72.069,370.871Z" transform="translate(-66.886 -338.598)"/>
            <path id="Path_1017" data-name="Path 1017" d="M71.418,347.225c-1.769-3.6-3.666-2.694-3.908-2.313S67.429,347.445,71.418,347.225Z" transform="translate(-67.438 -342.01)"/>
            <path id="Path_1018" data-name="Path 1018" d="M70.1,369.582a4.624,4.624,0,0,0-.648-.625l-.081-.058a19.472,19.472,0,0,0,1.156,1.573h.254a6.59,6.59,0,0,0-.682-.89Z" transform="translate(-67.136 -338.199)"/>
            <path id="Path_1019" data-name="Path 1019" d="M70.634,370.329a.243.243,0,0,1,0-.069H70.38l.509.694H71C70.854,370.723,70.738,370.514,70.634,370.329Z" transform="translate(-66.978 -337.986)"/>
          </g>
        </g>
        <path id="Path_1021" data-name="Path 1021" d="M74.936,324.11S62.47,337.986,62.47,352.5s8.3,27.753,31.222,48.474S138,436.982,147.011,441.838s18-1.388,18-1.388,14.894,14.882,16.617,11.425-5.192-8.661-6.58-10.731a28.447,28.447,0,0,0-4.151-4.5s7.273,1.029,10.049,3.469,7.262,6.58,9.343,6.233,2.081-2.081-1.041-6.233a37.072,37.072,0,0,0-9-8.314c-2.081-1.376-9.008-5.192-9.008-5.192s10.037-.694,13.506,1.388,12.812,8.314,13.506,5.539.694-4.5-2.775-7.62-10.407-6.938-14.535-7.62a42.94,42.94,0,0,1-8.314-2.417s7.967-2.775,10.731-2.775,13.876,5.539,16.964,4.857,1.388-3.469-1.029-5.2-13.159-5.886-17.669-6.233-29.776,8.314-32.887,8.314-11.078-11.078-19.392-25.972-11.425-38.09-29.082-46.046" transform="translate(-62.47 -55.62)" fill="none" stroke="#263238" stroke-linecap="round" stroke-linejoin="round" stroke-width="1"/>
        <path id="Path_1022" data-name="Path 1022" d="M197.485,407.908c-2.428-1.723-13.159-5.886-17.669-6.233s-29.776,8.314-32.887,8.314-11.078-11.078-19.392-25.972c-4.625-8.268-7.632-19.1-12.431-28.458-25.44-3.469-36.344,11.4-41.386,22.1a185.78,185.78,0,0,0,18.155,18.5c22.849,20.814,44.311,36.009,53.319,40.866s18-1.388,18-1.388,14.894,14.882,16.617,11.425-5.192-8.661-6.58-10.731a28.442,28.442,0,0,0-4.151-4.5s7.273,1.029,10.049,3.469,7.262,6.58,9.343,6.233,2.081-2.081-1.041-6.233a37.072,37.072,0,0,0-9-8.314c-2.081-1.376-9.008-5.192-9.008-5.192s10.037-.694,13.506,1.388,12.812,8.314,13.506,5.539.694-4.5-2.775-7.62-10.407-6.938-14.535-7.62a42.934,42.934,0,0,1-8.314-2.417s7.967-2.775,10.731-2.775,13.876,5.539,16.964,4.857S199.9,409.642,197.485,407.908Z" transform="translate(-60.711 -50.783)" fill="#b2b2b2" stroke="#263238" stroke-linecap="round" stroke-linejoin="round" stroke-width="1"/>
        <path id="Path_1023" data-name="Path 1023" d="M312.307,362.855c-2.891-6.6-.416-21.057,2.475-41.7s5.782-41.7,5.782-52.845,1.839-26.6-1.792-31.58-16.848-18.5-17.831-24.769,7.921-15.854,7.921-15.854,2.648-4.961,4.961-2.313,1.318,5.944,0,10.569-2.648,8.256-2.648,8.256,11.563,3.631,14.535,1.654,2.706-13.286,2.5-18.825c-.428-10.8-4.753-6.186-7.748-1.075-1.445,2.451-9.91.994-4.961-5.285s9.551-11.818,14.177-6.857,7.921,14.535,7.921,14.535,3.307-15.738,6.314-24.989,8.4-12.916,10.338-12.269,1.723,3.874-.22,8.4-6.244,17-7.32,21.092-1.284,8.823.867,8.4,9.679-13.564,11.841-19.161,5.377-10.754,9.031-13.125,6.672.648,5.169,4.521a196.911,196.911,0,0,1-10.153,20.444,88.338,88.338,0,0,0-6.025,13.344,151.779,151.779,0,0,1,11.194-10.766c5.169-4.3,10.766-5.157,12.477-3.654s.22,1.723-4.082,5.169-10.731,7.551-15.877,15.923a79.046,79.046,0,0,0-9.251,19.8,67.132,67.132,0,0,1-6.244,13.136s4.036,32.771,11.032,50.8,19.369,44.392,15.6,63.229-11.032,28.516-21.254,31.476a19.762,19.762,0,0,1-17.484-3.226" transform="translate(-25.196 -81.367)" fill="#fff"/>
        <g id="Group_437" data-name="Group 437" transform="translate(275.668 78.07)" clip-path="url(#clip-path-5)">
          <g id="Group_436" data-name="Group 436" transform="translate(7.604 6.432)" opacity="0.2">
            <path id="Path_1024" data-name="Path 1024" d="M359.92,174.35a1.283,1.283,0,0,1,.925.8h0a1.249,1.249,0,0,0-.925-.8Z" transform="translate(-299.235 -163.538)"/>
            <path id="Path_1025" data-name="Path 1025" d="M359.92,174.35v2.706l.925-1.908a1.283,1.283,0,0,0-.925-.8Z" transform="translate(-299.235 -163.538)"/>
            <path id="Path_1026" data-name="Path 1026" d="M359.92,322.871c2.209-3.342.474-4.521,0-4.521C360.394,318.35,362.129,319.529,359.92,322.871Z" transform="translate(-299.235 -141.023)"/>
            <path id="Path_1027" data-name="Path 1027" d="M363.539,322.913q0-1.156-.1-2.313c-.717.185-1.619.867-2.475,2.625a6.291,6.291,0,0,0,2.579-.312Z" transform="translate(-299.072 -140.671)"/>
            <path id="Path_1028" data-name="Path 1028" d="M359.92,318.35v4.521C362.129,319.529,360.394,318.35,359.92,318.35Z" transform="translate(-299.235 -141.023)"/>
            <path id="Path_1029" data-name="Path 1029" d="M312.068,198.35c-.4,0-1.677.844-.775,3.076.289-.937.6-1.966.914-3.053Z" transform="translate(-306.887 -159.786)"/>
            <path id="Path_1030" data-name="Path 1030" d="M336.069,214.871c2.209-3.342.474-4.521,0-4.521S333.849,211.53,336.069,214.871Z" transform="translate(-303.136 -157.909)"/>
            <path id="Path_1031" data-name="Path 1031" d="M359.582,178.039l.486-.983V174.35C359.628,174.35,358.16,175.344,359.582,178.039Z" transform="translate(-299.382 -163.538)"/>
            <path id="Path_1032" data-name="Path 1032" d="M336.068,186.35c-.474,0-2.209,1.156,0,4.521C338.277,187.529,336.542,186.35,336.068,186.35Z" transform="translate(-303.135 -161.662)"/>
            <path id="Path_1033" data-name="Path 1033" d="M316.464,225.906a.849.849,0,0,0-.8-1.376,1.884,1.884,0,0,0-.636.093c.474.578.9,1.1,1.249,1.561A1.28,1.28,0,0,0,316.464,225.906Z" transform="translate(-306.253 -155.692)"/>
            <path id="Path_1034" data-name="Path 1034" d="M340.868,212.946c-.243-.416-2.139-1.318-3.909,2.313C340.949,215.443,341.1,213.35,340.868,212.946Z" transform="translate(-302.825 -157.568)"/>
            <path id="Path_1035" data-name="Path 1035" d="M340.307,190.507a13.432,13.432,0,0,1,0-1.908c-.74-.231-2.093,0-3.377,2.625A4.776,4.776,0,0,0,340.307,190.507Z" transform="translate(-302.829 -161.321)"/>
            <path id="Path_1036" data-name="Path 1036" d="M340.492,165c-.312.52-.6,1.087-.9,1.677a1.584,1.584,0,0,0,.9-1.677Z" transform="translate(-302.413 -165)"/>
            <path id="Path_1037" data-name="Path 1037" d="M307.509,200.945c-.231.393-.081,2.405,3.654,2.313l.1-.3C309.545,199.7,307.752,200.54,307.509,200.945Z" transform="translate(-307.44 -159.443)"/>
            <path id="Path_1038" data-name="Path 1038" d="M331.51,212.946c-.243.4-.081,2.5,3.908,2.313C333.649,211.627,331.753,212.529,331.51,212.946Z" transform="translate(-303.688 -157.568)"/>
            <path id="Path_1039" data-name="Path 1039" d="M355.509,176.945c-.231.4-.081,2.486,3.862,2.313h0C357.637,175.639,355.752,176.529,355.509,176.945Z" transform="translate(-299.935 -163.196)"/>
            <path id="Path_1040" data-name="Path 1040" d="M335.2,191.173a5.446,5.446,0,0,0-1.873-2.313c-.185.867-.347,1.6-.463,2.151a6.741,6.741,0,0,0,2.336.162Z" transform="translate(-303.466 -161.269)"/>
            <path id="Path_1041" data-name="Path 1041" d="M332.21,190.558c-.185-.486-.416-1.052-.682-1.688h0a1.469,1.469,0,0,0,.682,1.688Z" transform="translate(-303.683 -161.268)"/>
            <path id="Path_1042" data-name="Path 1042" d="M336.069,286.871c2.209-3.342.474-4.521,0-4.521S333.849,283.529,336.069,286.871Z" transform="translate(-303.136 -146.652)"/>
            <path id="Path_1043" data-name="Path 1043" d="M336.068,258.35c-.474,0-2.209,1.156,0,4.521C338.277,259.529,336.542,258.35,336.068,258.35Z" transform="translate(-303.135 -150.404)"/>
            <path id="Path_1044" data-name="Path 1044" d="M336.068,234.35c-.474,0-2.209,1.156,0,4.521C338.277,235.529,336.542,234.35,336.068,234.35Z" transform="translate(-303.135 -154.157)"/>
            <path id="Path_1045" data-name="Path 1045" d="M316.392,273a5.391,5.391,0,0,1-.092.74A1.271,1.271,0,0,0,316.392,273Z" transform="translate(-306.055 -148.114)"/>
            <path id="Path_1046" data-name="Path 1046" d="M316.818,296.945c-.231-.393-1.885-1.156-3.538,1.584h2.937A1.434,1.434,0,0,0,316.818,296.945Z" transform="translate(-306.527 -144.433)"/>
            <path id="Path_1047" data-name="Path 1047" d="M337,287.228c3.989.22,4.14-1.873,3.908-2.313S338.723,283.632,337,287.228Z" transform="translate(-302.818 -146.315)"/>
            <path id="Path_1048" data-name="Path 1048" d="M340.868,260.946c-.243-.416-2.139-1.318-3.909,2.313C340.949,263.443,341.1,261.35,340.868,260.946Z" transform="translate(-302.825 -150.063)"/>
            <path id="Path_1049" data-name="Path 1049" d="M337,239.224c2.937.162,3.793-.925,3.943-1.677l-.1-.682C340.4,236.438,338.619,235.836,337,239.224Z" transform="translate(-302.818 -153.816)"/>
            <path id="Path_1050" data-name="Path 1050" d="M357.716,296.969c-1.156-.8-2.047-.312-2.209,0a1.434,1.434,0,0,0,.6,1.584h2.151Z" transform="translate(-299.933 -144.434)"/>
            <path id="Path_1051" data-name="Path 1051" d="M331.51,284.946c-.243.4-.081,2.5,3.908,2.313C333.649,283.627,331.753,284.529,331.51,284.946Z" transform="translate(-303.688 -146.31)"/>
            <path id="Path_1052" data-name="Path 1052" d="M331.51,260.946c-.243.4-.081,2.5,3.908,2.313C333.649,259.627,331.753,260.529,331.51,260.946Z" transform="translate(-303.688 -150.063)"/>
            <path id="Path_1053" data-name="Path 1053" d="M331.51,236.946c-.243.4-.081,2.5,3.908,2.313C333.649,235.627,331.753,236.529,331.51,236.946Z" transform="translate(-303.688 -153.815)"/>
            <path id="Path_1054" data-name="Path 1054" d="M336.068,354.35c-.451,0-2.024,1.064-.324,4l.578.116C338.126,355.437,336.519,354.35,336.068,354.35Z" transform="translate(-303.135 -135.394)"/>
            <path id="Path_1055" data-name="Path 1055" d="M312.069,322.871c2.209-3.342.474-4.521,0-4.521S309.849,319.529,312.069,322.871Z" transform="translate(-306.889 -141.023)"/>
            <path id="Path_1056" data-name="Path 1056" d="M360.068,318.35c-.474,0-2.209,1.156,0,4.521Z" transform="translate(-299.383 -141.023)"/>
            <path id="Path_1057" data-name="Path 1057" d="M336.069,334.871c2.209-3.342.474-4.521,0-4.521S333.849,331.53,336.069,334.871Z" transform="translate(-303.136 -139.147)"/>
            <path id="Path_1058" data-name="Path 1058" d="M336.068,306.35c-.474,0-2.209,1.156,0,4.521C338.277,307.529,336.542,306.35,336.068,306.35Z" transform="translate(-303.135 -142.899)"/>
            <path id="Path_1059" data-name="Path 1059" d="M340.809,356.946c-.22-.382-1.8-1.156-3.469,1.4a19.183,19.183,0,0,0,2.868.15A1.422,1.422,0,0,0,340.809,356.946Z" transform="translate(-302.765 -135.053)"/>
            <path id="Path_1060" data-name="Path 1060" d="M313,323.228c3.989.22,4.14-1.873,3.908-2.313S314.723,319.632,313,323.228Z" transform="translate(-306.571 -140.686)"/>
            <path id="Path_1061" data-name="Path 1061" d="M337,335.228c3.989.22,4.14-1.873,3.908-2.313S338.723,331.632,337,335.228Z" transform="translate(-302.818 -138.81)"/>
            <path id="Path_1062" data-name="Path 1062" d="M340.868,308.946c-.243-.416-2.139-1.318-3.909,2.313C340.949,311.443,341.1,309.35,340.868,308.946Z" transform="translate(-302.825 -142.558)"/>
            <path id="Path_1063" data-name="Path 1063" d="M355.509,344.946c-.185.312-.127,1.619,1.723,2.1.312-.555.624-1.156.914-1.7C356.839,344.033,355.695,344.622,355.509,344.946Z" transform="translate(-299.935 -136.93)"/>
            <path id="Path_1064" data-name="Path 1064" d="M332.07,356.563a21.505,21.505,0,0,0,2.024.833,2.2,2.2,0,0,0-2.024-.833Z" transform="translate(-303.589 -135.051)"/>
            <path id="Path_1065" data-name="Path 1065" d="M311.036,323.079a6.941,6.941,0,0,0-1.029-1.619c0,.543-.093,1.075-.127,1.607a9.457,9.457,0,0,0,1.156.012Z" transform="translate(-307.059 -140.537)"/>
            <path id="Path_1066" data-name="Path 1066" d="M359.418,323.225c-1.769-3.6-3.666-2.694-3.908-2.313S355.429,323.445,359.418,323.225Z" transform="translate(-299.935 -140.683)"/>
            <path id="Path_1067" data-name="Path 1067" d="M331.51,332.946c-.243.4-.081,2.5,3.908,2.313C333.649,331.627,331.753,332.529,331.51,332.946Z" transform="translate(-303.688 -138.805)"/>
            <path id="Path_1068" data-name="Path 1068" d="M331.51,308.946c-.243.4-.081,2.5,3.908,2.313C333.649,307.627,331.753,308.529,331.51,308.946Z" transform="translate(-303.688 -142.558)"/>
            <path id="Path_1069" data-name="Path 1069" d="M313.33,298.262c-.127.208-.243.439-.37.682h0a4.834,4.834,0,0,0,3.307-.694H313.33Z" transform="translate(-306.577 -144.166)"/>
            <path id="Path_1070" data-name="Path 1070" d="M358.174,298.26H356a4.1,4.1,0,0,0,2.394.694Z" transform="translate(-299.848 -144.164)"/>
          </g>
        </g>
        <path id="Path_1072" data-name="Path 1072" d="M312.307,362.855c-2.891-6.6-.416-21.057,2.475-41.7s5.782-41.7,5.782-52.845,1.839-26.6-1.792-31.58-16.848-18.5-17.831-24.769,7.921-15.854,7.921-15.854,2.648-4.961,4.961-2.313,1.318,5.944,0,10.569-2.648,8.256-2.648,8.256,11.563,3.631,14.535,1.654,2.706-13.286,2.5-18.825c-.428-10.8-4.753-6.186-7.748-1.075-1.445,2.451-9.91.994-4.961-5.285s9.551-11.818,14.177-6.857,7.921,14.535,7.921,14.535,3.307-15.738,6.314-24.989,8.4-12.916,10.338-12.269,1.723,3.874-.22,8.4-6.244,17-7.32,21.092-1.284,8.823.867,8.4,9.679-13.564,11.841-19.161,5.377-10.754,9.031-13.125,6.672.648,5.169,4.521a196.911,196.911,0,0,1-10.153,20.444,88.338,88.338,0,0,0-6.025,13.344,151.779,151.779,0,0,1,11.194-10.766c5.169-4.3,10.766-5.157,12.477-3.654s.22,1.723-4.082,5.169-10.731,7.551-15.877,15.923a79.046,79.046,0,0,0-9.251,19.8,67.132,67.132,0,0,1-6.244,13.136s4.036,32.771,11.032,50.8,19.369,44.392,15.6,63.229-11.032,28.516-21.254,31.476a19.762,19.762,0,0,1-17.484-3.226" transform="translate(-25.196 -81.367)" fill="none" stroke="#263238" stroke-linecap="round" stroke-linejoin="round" stroke-width="1"/>
        <path id="Path_1073" data-name="Path 1073" d="M361.157,210.089c5.169-8.4,11.633-12.489,15.935-15.923s5.782-3.666,4.082-5.169-7.308-.648-12.477,3.654A151.771,151.771,0,0,0,357.5,203.417a88.337,88.337,0,0,1,5.967-13.344,196.907,196.907,0,0,0,10.118-20.444c1.5-3.874-1.5-6.938-5.169-4.521s-6.88,7.528-9.031,13.125-9.69,18.733-11.841,19.161-1.943-4.313-.867-8.4,5.389-16.571,7.32-21.092,2.151-7.748.22-8.4-7.32,3.007-10.338,12.269-6.314,24.989-6.314,24.989-3.3-9.586-7.921-14.535-9.251.578-14.177,6.857,3.469,7.736,4.961,5.285c2.995-5.111,7.32-9.725,7.748,1.075.208,5.539.474,16.837-2.5,18.825s-14.535-1.654-14.535-1.654,1.318-3.631,2.648-8.256,2.313-7.933,0-10.569-4.961,2.313-4.961,2.313-8.915,9.575-7.921,15.854,14.2,19.808,17.831,24.769,1.792,20.433,1.792,31.58-2.891,32.2-5.782,52.845a6.022,6.022,0,0,1-.116.8c4.568,4.8,13.876,11.679,29.614,11.147,10.546-.358,18.016-5.666,23.069-11.506-3.353-9.979-7.563-19.658-10.685-27.752-7-18.028-11.032-50.8-11.032-50.8a67.128,67.128,0,0,0,6.244-13.136,79.047,79.047,0,0,1,9.309-19.82Z" transform="translate(-25.201 -81.367)" fill="#b2b2b2" stroke="#263238" stroke-linecap="round" stroke-linejoin="round" stroke-width="1"/>
        <path id="Path_1074" data-name="Path 1074" d="M325.708,233.307s-1.931-8.175.867-13.344a14.512,14.512,0,0,1,6.88-6.672" transform="translate(-21.413 -72.947)" fill="none" stroke="#263238" stroke-linecap="round" stroke-linejoin="round" stroke-width="1"/>
      </g>
    </g>
  </g>
</svg>
